<svg xmlns="http://www.w3.org/2000/svg" xmlns:xlink="http://www.w3.org/1999/xlink" width="390" height="475" viewBox="0 0 390 475">
    <defs>
        <path id="prefix__a" d="M0 0H390V475H0z"/>
        <path id="prefix__c" d="M0 0.134L59.02 0.134 59.02 59.3 0 59.3z"/>
        <path id="prefix__e" d="M0 215L129 215 129 0 0 0z"/>
    </defs>
    <g fill="none" fill-rule="evenodd">
        <g transform="translate(-829 -6042) translate(829 6042)">
            <mask id="prefix__b" fill="#fff">
                <use xlink:href="#prefix__a"/>
            </mask>
            <use fill="#1B1B1B" xlink:href="#prefix__a"/>
            <g mask="url(#prefix__b)">
                <g transform="translate(131 130)">
                    <g transform="translate(0 78.873)">
                        <mask id="prefix__d" fill="#fff">
                            <use xlink:href="#prefix__c"/>
                        </mask>
                        <path fill="#FFF" d="M22.912 31.442h12.5c2.461 0 4.55-.739 6.271-2.218 1.723-1.48 2.582-3.56 2.582-6.245 0-2.084-.902-3.944-2.704-5.59-1.805-1.642-3.852-2.465-6.149-2.465H14.755V59.3h-2.95V11.967h23.607c3.143 0 5.898 1.109 8.258 3.327 2.364 2.22 3.548 4.78 3.548 7.685 0 3.477-1.15 6.251-3.444 8.318-2.297 2.07-5.083 3.103-8.362 3.103h-12.5v-2.958zm0 5.917h12.5c4.045 0 7.513-1.343 10.41-4.028 2.897-2.684 4.345-6.135 4.345-10.352 0-3.699-1.475-6.95-4.425-9.76-2.952-2.806-6.395-4.212-10.33-4.212H8.853V59.3h-2.95V6.05h29.51c4.755 0 8.893 1.69 12.418 5.076 3.525 3.382 5.289 7.333 5.289 11.853 0 4.928-1.745 9.052-5.226 12.367-3.486 3.314-7.646 4.971-12.482 4.971h-12.5v-2.958zm0 5.916h12.5c3.69 0 7.112-.876 10.268-2.628 3.156-1.754 5.676-4.192 7.562-7.316 1.886-3.123 2.827-6.573 2.827-10.352 0-3.48-.937-6.754-2.806-9.82-1.874-3.069-4.4-5.513-7.583-7.335-3.183-1.82-6.606-2.732-10.268-2.732H2.952V59.3H-.002V.134h35.413c3.114 0 6.128.616 9.038 1.847 2.91 1.235 5.432 2.884 7.562 4.953 2.131 2.067 3.831 4.505 5.102 7.312 1.271 2.81 1.906 5.718 1.906 8.733 0 3.532-.629 6.777-1.884 9.737-1.26 2.959-2.967 5.418-5.124 7.375-2.16 1.96-4.665 3.472-7.52 4.54-2.857 1.069-5.883 1.604-9.08 1.604h-12.5v-2.96z" mask="url(#prefix__d)"/>
                    </g>
                    <path fill="#FFF" d="M87.334 109.818h17.737c2.347 0 4.334-.74 5.965-2.223 1.64-1.48 2.453-3.565 2.453-6.254 0-1.976-.85-3.745-2.55-5.31-1.708-1.564-3.664-2.345-5.868-2.345H79.814v44.442h-2.942V90.723h28.2c3.024 0 5.672 1.07 7.951 3.211 2.27 2.139 3.415 4.61 3.415 7.407 0 3.484-1.106 6.261-3.319 8.333-2.203 2.07-4.889 3.108-8.048 3.108H87.334v-2.964zm0 5.925h17.737c3.926 0 7.289-1.343 10.095-4.032 2.807-2.69 4.213-6.145 4.213-10.37 0-3.594-1.43-6.754-4.295-9.486-2.86-2.73-6.2-4.095-10.013-4.095H73.927v50.368h-2.942V84.8h34.086c4.634 0 8.667 1.653 12.096 4.956 3.437 3.307 5.153 7.17 5.153 11.586 0 4.938-1.692 9.068-5.085 12.386-3.393 3.32-7.447 4.98-12.164 4.98H87.334v-2.964zm0 5.924h17.737c3.626 0 6.974-.876 10.058-2.631 3.077-1.756 5.536-4.2 7.37-7.325 1.843-3.128 2.763-6.586 2.763-10.37 0-3.428-.912-6.645-2.74-9.65-1.827-3.005-4.293-5.398-7.416-7.183-3.122-1.782-6.462-2.673-10.035-2.673h-37.03v56.293H65.1V78.873h39.972c3.077 0 6.041.609 8.891 1.83 2.844 1.222 5.303 2.841 7.381 4.857 2.068 2.015 3.73 4.41 4.987 7.18 1.247 2.77 1.871 5.637 1.871 8.601 0 4.8-1.083 8.991-3.264 12.57-2.182 3.58-5.108 6.304-8.785 8.17l6.168 16.047h-3.143l-5.846-14.855c-.737.247-1.595.495-2.58.741l5.522 14.114h-3.154l-5.392-13.619c-.842.081-1.729.123-2.656.123l5.19 13.496h-3.106l-5.143-13.496H99.35l4.945 13.496h-3.105l-4.988-13.496h-8.868v-2.965z"/>
                    <mask id="prefix__f" fill="#fff">
                        <use xlink:href="#prefix__e"/>
                    </mask>
                    <path fill="#C685FF" d="M11.819 212.197h2.958v-59.255H11.82v59.255zm-5.911 0h2.958v-59.255H5.908v59.255zm-5.908 0h2.955v-59.255H0v59.255zM71.105 169.713l-2.321 1.802c-1.632-2.076-3.651-3.7-6.055-4.874-2.404-1.173-4.965-1.76-7.685-1.76-4.862 0-9.013 1.734-12.449 5.198-3.44 3.47-5.158 7.633-5.158 12.49 0 4.86 1.718 9.024 5.158 12.489 3.436 3.468 7.587 5.203 12.45 5.203 2.719 0 5.283-.597 7.702-1.784 2.42-1.186 4.446-2.817 6.073-4.892l2.244 1.884c-1.9 2.403-4.253 4.292-7.053 5.671-2.798 1.38-5.786 2.067-8.967 2.067-3.72 0-7.16-.922-10.312-2.765-3.15-1.842-5.645-4.345-7.48-7.514-1.833-3.166-2.751-6.617-2.751-10.358 0-3.741.918-7.192 2.751-10.358 1.835-3.168 4.33-5.674 7.48-7.516 3.151-1.843 6.592-2.764 10.312-2.764 3.181 0 6.177.69 8.992 2.07 2.807 1.377 5.168 3.28 7.07 5.711m4.605-3.686l-2.284 1.843c-2.199-2.758-4.903-4.925-8.11-6.51s-6.632-2.374-10.273-2.374c-3.177 0-6.217.619-9.107 1.861-2.896 1.242-5.398 2.922-7.501 5.037-2.105 2.116-3.779 4.626-5.016 7.535-1.233 2.907-1.854 5.957-1.854 9.15 0 3.194.62 6.245 1.854 9.153 1.237 2.907 2.91 5.418 5.016 7.534 2.103 2.116 4.605 3.794 7.5 5.037 2.891 1.242 5.93 1.86 9.108 1.86 3.64 0 7.066-.789 10.274-2.371 3.206-1.582 5.91-3.753 8.11-6.512l2.2 1.923c-2.47 3.086-5.503 5.51-9.089 7.269-3.584 1.762-7.417 2.642-11.495 2.642-3.585 0-7.01-.703-10.271-2.109-3.258-1.405-6.069-3.29-8.416-5.65-2.352-2.363-4.228-5.18-5.626-8.458-1.399-3.273-2.097-6.713-2.097-10.317s.698-7.044 2.097-10.32c1.398-3.273 3.274-6.092 5.626-8.455 2.347-2.361 5.158-4.245 8.416-5.65 3.26-1.406 6.686-2.109 10.271-2.109 4.104 0 7.955.887 11.556 2.66 3.601 1.776 6.639 4.22 9.111 7.331m4.565-3.684l-2.363 1.759c-2.745-3.412-6.11-6.101-10.09-8.066-3.979-1.966-8.241-2.948-12.779-2.948-3.965 0-7.764.777-11.391 2.334-3.627 1.556-6.753 3.652-9.375 6.285-2.625 2.636-4.71 5.773-6.257 9.42-1.548 3.64-2.325 7.457-2.325 11.443 0 3.986.777 7.802 2.325 11.444 1.547 3.644 3.632 6.785 6.257 9.419 2.622 2.634 5.748 4.729 9.375 6.285s7.426 2.334 11.391 2.334c4.538 0 8.8-.983 12.78-2.948 3.98-1.965 7.344-4.654 10.089-8.066l2.323 1.8c-3.017 3.767-6.72 6.735-11.108 8.906-4.387 2.17-9.083 3.256-14.084 3.256-4.374 0-8.552-.86-12.532-2.578-3.984-1.72-7.412-4.027-10.292-6.92-2.88-2.895-5.176-6.344-6.89-10.34-1.711-4-2.565-8.199-2.565-12.592 0-4.393.854-8.592 2.564-12.592 1.715-3.997 4.01-7.445 6.891-10.338 2.88-2.894 6.308-5.202 10.292-6.921 3.98-1.72 8.158-2.58 12.532-2.58 5 0 9.705 1.086 14.104 3.257 4.402 2.17 8.112 5.152 11.128 8.947M92.92 212.197h2.931v-59.255h-2.93v59.255zm-5.855 0h2.928v-59.255h-2.928v59.255zM30.609 35.786h-4.906c-6.027 0-10.663-1.23-13.908-3.69-3.242-2.46-4.863-5.848-4.863-10.167 0-4.027 1.908-7.387 5.725-10.077 3.817-2.689 9.17-4.036 16.058-4.036 4.592 0 8.876.633 12.853 1.9 3.972 1.265 7.28 3.05 9.921 5.352l-2.412 1.942c-2.353-1.928-5.31-3.424-8.867-4.49-3.56-1.064-7.391-1.597-11.495-1.597-6.056 0-10.684 1.037-13.883 3.108-3.2 2.073-4.8 4.706-4.8 7.898 0 3.454 1.311 6.11 3.938 7.964 2.626 1.857 6.537 2.785 11.733 2.785h4.735c6.114 0 10.798 1.23 14.057 3.692 3.255 2.458 4.884 5.845 4.884 10.163 0 4.03-1.908 7.387-5.725 10.079-3.816 2.69-9.17 4.036-16.058 4.036-4.593 0-8.875-.635-12.85-1.9-3.976-1.266-7.285-3.05-9.922-5.35l2.41-1.943c2.354 1.928 5.308 3.423 8.867 4.489 3.558 1.063 7.391 1.596 11.495 1.596 6.056 0 10.683-1.037 13.883-3.109 3.202-2.07 4.8-4.705 4.8-7.898 0-3.452-1.311-6.107-3.938-7.964-2.625-1.856-6.537-2.783-11.732-2.783m0 6.215h-4.906c-7.98 0-14.137-1.818-18.47-5.461C2.9 32.9.734 28.032.734 21.93c0-2.79.616-5.409 1.85-7.854C3.818 11.628 5.59 9.478 7.9 7.623c2.311-1.857 5.259-3.325 8.847-4.403C20.335 2.14 24.324 1.6 28.715 1.6c5.54 0 10.72.84 15.54 2.526 4.822 1.682 8.842 4.034 12.058 7.056l-2.499 1.856c-2.927-2.648-6.585-4.696-10.977-6.152-4.392-1.451-9.1-2.18-14.122-2.18-7.747 0-13.834 1.642-18.252 4.92-4.42 3.283-6.631 7.383-6.631 12.302 0 5.21 1.893 9.339 5.684 12.388 3.786 3.052 9.182 4.577 16.187 4.577h4.735c8.493 0 12.742 2.545 12.742 7.639 0 2.302-1.298 4.195-3.896 5.676-2.598 1.482-6.494 2.222-11.688 2.222-3.645 0-7.031-.422-10.16-1.274-3.13-.846-5.713-2.062-7.75-3.645l2.455-1.9c3.587 2.477 8.738 3.711 15.455 3.711 4.305 0 7.462-.445 9.47-1.337 2.009-.891 3.016-2.043 3.016-3.453 0-1.64-.704-2.806-2.11-3.498-1.407-.688-3.861-1.034-7.363-1.034m0-12.43h-4.906c-8.381 0-12.572-2.547-12.572-7.642 0-2.3 1.3-4.192 3.896-5.676 2.597-1.48 6.493-2.222 11.688-2.222 3.645 0 7.031.425 10.16 1.273 3.127.85 5.71 2.066 7.748 3.649L44.17 20.85c-3.589-2.475-8.739-3.71-15.456-3.71-4.303 0-7.462.446-9.471 1.338-2.01.891-3.015 2.043-3.015 3.45 0 1.641.704 2.807 2.11 3.498 1.408.691 3.861 1.035 7.364 1.035h4.906c7.978 0 14.136 1.82 18.468 5.462 4.334 3.638 6.502 8.508 6.502 14.609 0 2.791-.618 5.41-1.85 7.857-1.236 2.445-3.007 4.596-5.318 6.452-2.311 1.856-5.259 3.322-8.846 4.404-3.587 1.078-7.577 1.616-11.97 1.616-5.538 0-10.719-.84-15.54-2.525C7.235 62.655 3.216 60.301 0 57.282l2.497-1.857c2.928 2.646 6.587 4.699 10.979 6.15 4.39 1.453 9.096 2.18 14.12 2.18 7.748 0 13.834-1.64 18.254-4.92 4.419-3.281 6.63-7.38 6.63-12.302 0-5.206-1.894-9.337-5.685-12.387-3.786-3.048-9.183-4.576-16.186-4.576M81.958 21.048c-3.614 3.662-5.42 8.056-5.42 13.182 0 5.131 1.806 9.525 5.42 13.184 3.615 3.66 7.98 5.49 13.095 5.49 5.113 0 9.478-1.83 13.094-5.49 3.613-3.659 5.422-8.053 5.422-13.184 0-5.126-1.809-9.52-5.422-13.182-3.616-3.657-7.981-5.489-13.094-5.489-5.115 0-9.48 1.832-13.095 5.49m-5.615 24.118c-1.929-3.343-2.893-6.985-2.893-10.937 0-3.947.964-7.59 2.893-10.932 1.93-3.345 4.55-5.988 7.865-7.933 3.315-1.945 6.93-2.918 10.845-2.918 3.914 0 7.53.973 10.845 2.918 3.312 1.945 5.937 4.588 7.864 7.933 1.929 3.342 2.893 6.985 2.893 10.932 0 3.952-.964 7.594-2.893 10.937-1.927 3.344-4.552 5.985-7.864 7.93-3.316 1.946-6.93 2.918-10.845 2.918-3.915 0-7.53-.972-10.845-2.917-3.314-1.946-5.936-4.587-7.865-7.93m-4.029-20.596c-1.302 3.07-1.95 6.287-1.95 9.658 0 3.374.648 6.594 1.95 9.661 1.3 3.07 3.057 5.72 5.272 7.954 2.214 2.233 4.845 4.005 7.885 5.316 3.044 1.312 6.24 1.966 9.582 1.966 3.342 0 6.536-.654 9.58-1.966 3.045-1.311 5.67-3.083 7.887-5.316 2.212-2.235 3.97-4.884 5.271-7.954 1.3-3.067 1.95-6.287 1.95-9.66 0-3.372-.65-6.59-1.95-9.659-1.301-3.069-3.059-5.72-5.271-7.953-2.216-2.235-4.842-4.005-7.888-5.318-3.043-1.31-6.237-1.963-9.579-1.963-3.342 0-6.538.652-9.582 1.963-3.04 1.313-5.67 3.083-7.885 5.318-2.215 2.233-3.972 4.884-5.272 7.953m-2.83 20.55c-1.471-3.456-2.206-7.086-2.206-10.892 0-3.801.735-7.432 2.206-10.89 1.474-3.457 3.444-6.433 5.918-8.927 2.47-2.491 5.42-4.48 8.85-5.963 3.43-1.483 7.029-2.226 10.801-2.226 3.77 0 7.373.743 10.8 2.226 3.43 1.482 6.381 3.472 8.852 5.963 2.471 2.494 4.443 5.47 5.914 8.926 1.472 3.459 2.209 7.09 2.209 10.891 0 3.806-.737 7.436-2.209 10.893-1.471 3.46-3.443 6.434-5.914 8.927-2.471 2.492-5.422 4.482-8.851 5.964-3.428 1.484-7.031 2.227-10.8 2.227-3.773 0-7.373-.743-10.802-2.227-3.43-1.482-6.38-3.472-8.85-5.964-2.474-2.493-4.444-5.467-5.918-8.927m-2.849-22.97c-1.63 3.844-2.444 7.872-2.444 12.077 0 4.208.815 8.235 2.444 12.083 1.628 3.846 3.821 7.161 6.578 9.94 2.758 2.78 6.046 4.992 9.859 6.634 3.815 1.644 7.808 2.465 11.981 2.465 4.171 0 8.164-.821 11.98-2.465 3.814-1.642 7.101-3.853 9.858-6.634 2.758-2.779 4.95-6.094 6.58-9.94 1.627-3.848 2.441-7.875 2.441-12.083 0-4.205-.814-8.233-2.44-12.078-1.63-3.848-3.823-7.161-6.581-9.942-2.757-2.78-6.044-4.992-9.857-6.635-3.817-1.642-7.81-2.463-11.98-2.463-4.174 0-8.167.821-11.982 2.463-3.813 1.643-7.1 3.855-9.859 6.635-2.757 2.78-4.95 6.094-6.578 9.942m-2.828 25.37c-1.801-4.222-2.702-8.651-2.702-13.292 0-4.637.9-9.067 2.702-13.289 1.797-4.221 4.213-7.86 7.243-10.914 3.029-3.052 6.636-5.489 10.823-7.305C86.058.907 90.453 0 95.053 0s8.993.907 13.18 2.722c4.186 1.816 7.793 4.253 10.823 7.305 3.029 3.054 5.442 6.693 7.242 10.914C128.1 25.163 129 29.593 129 34.231c0 4.64-.9 9.07-2.702 13.292-1.8 4.22-4.213 7.86-7.242 10.914-3.03 3.055-6.637 5.489-10.822 7.305-4.188 1.813-8.58 2.722-13.18 2.722-4.601 0-8.996-.909-13.18-2.722-4.188-1.816-7.795-4.25-10.824-7.305-3.03-3.054-5.446-6.693-7.243-10.914M102.01 197.384L123.409 197.384 123.409 200.348 102.01 200.348 102.01 203.308 123.409 203.308 123.409 206.271 102.01 206.271 102.01 209.233 123.409 209.233 123.409 212.197 99.046 212.197 99.046 152.942 123.409 152.942 123.409 155.906 102.01 155.906 102.01 158.869 123.409 158.869 123.409 161.83 102.01 161.83 102.01 164.795 123.409 164.795 123.409 167.756 102.01 167.756 102.01 175.123 121.763 175.123 121.763 178.084 102.01 178.084 102.01 181.046 121.763 181.046 121.763 184.011 102.01 184.011 102.01 186.973 121.763 186.973 121.763 189.936 102.01 189.936z" mask="url(#prefix__f)"/>
                </g>
            </g>
        </g>
    </g>
</svg>
