<svg xmlns="http://www.w3.org/2000/svg" width="56" height="66" viewBox="0 0 56 66">
    <g fill="none" fill-rule="evenodd">
        <g opacity=".4">
            <path fill="#FFF" d="M33.73 7.028c-7.616-2.16-15.808-.031-21.391 5.56-5.583 5.59-7.674 13.758-5.46 21.327h4.918c-2.863-7.495-.079-15.963 6.681-20.322s15.66-3.426 21.36 2.24c.244.244.48.496.71.754L44 13.46c-2.741-3.07-6.304-5.301-10.27-6.432z" opacity=".4" transform="translate(-1160 -2025) translate(1160 2025)"/>
            <path fill="#FFF" d="M28.013 6.107c2.025-.002 4.04.279 5.987.833V0H0v34h7.099c-1.914-6.584-.62-13.686 3.493-19.171 4.113-5.486 10.566-8.716 17.421-8.722zM43.9 42.472c.324-.329.636-.669.936-1.02l.07-.083c.133-.155.264-.314.394-.474.017-.023.035-.045.054-.066.143-.18.284-.363.427-.548l.051-.068c.12-.163.238-.327.355-.492l.073-.107c.13-.189.258-.378.382-.571v-.015c.119-.185.234-.372.347-.56l.074-.124c.112-.191.214-.38.327-.574v-.014c.11-.2.214-.402.319-.606l.066-.132c.086-.174.171-.348.252-.524l.047-.102c.094-.213.186-.41.274-.618.017-.043.032-.083.05-.124.072-.174.142-.35.213-.527.019-.048.038-.095.055-.144.08-.212.156-.425.229-.637l.026-.077c.062-.189.124-.382.181-.575l.052-.166c.062-.213.12-.425.175-.637v-.026c.058-.212.111-.442.16-.665l.039-.174c.04-.187.079-.374.113-.56l.026-.128c.04-.223.077-.449.11-.674 0-.053.016-.108.024-.161.026-.185.05-.37.07-.557l.02-.17c.026-.227.047-.459.064-.688v-.119c.015-.198.026-.395.032-.595v-.189c0-.236.013-.471.013-.71V27h-4.63v.472c.015 4.486-1.779 8.79-4.98 11.953-.179.179-.362.35-.548.52l-.116.105c-.177.16-.359.314-.54.465l-.135.106c-.165.133-.332.263-.5.39l-.099.076c-.183.133-.37.26-.555.388l-.188.126c-6.69 4.364-15.536 3.505-21.249-2.065L14 43.572c6.545 5.776 15.946 7.067 23.822 3.272.214-.102.427-.213.624-.317l.08-.04c.418-.221.827-.456 1.226-.704l.079-.046c.4-.251.793-.512 1.175-.786l.062-.045c.176-.127.35-.257.524-.389l.051-.04c.188-.144.374-.293.556-.444l.026-.021c.17-.14.337-.285.502-.425.026-.021.051-.043.075-.066.346-.306.681-.624 1.006-.954l.092-.095z" opacity=".4" transform="translate(-1160 -2025) translate(1160 2025)"/>
            <path fill="#FFF" d="M49.108 27.022v.47c-.003 9.834-6.951 18.296-16.596 20.211-9.645 1.915-19.3-3.249-23.06-12.335-3.76-9.085-.579-19.562 7.599-25.022 8.178-5.461 19.074-4.385 26.025 2.57.293.293.576.594.849.903l.652-.595c-6.89-7.759-18.34-9.489-27.215-4.113C8.487 14.488 4.72 25.436 8.405 35.136c3.685 9.7 13.773 15.383 23.98 13.508C42.59 46.77 50 37.874 50 27.497v-.471l-.892-.004z" transform="translate(-1160 -2025) translate(1160 2025)"/>
            <path d="M8 55L47 55 34.872 34 20.128 34z" transform="translate(-1160 -2025) translate(1160 2025)"/>
            <path fill="#FFF" d="M33 27L28 19 32.996 27zM28 19L23 27 23.007 27zM36.266 33.684L34.99 33.684 47.312 54.172 7.688 54.172 20.01 33.684 18.732 33.684 22.122 28 22.116 28 6 55 49 55 32.882 28 32.878 28zM50 27L33 27 33.564 28 50 28z" transform="translate(-1160 -2025) translate(1160 2025)"/>
            <path fill="#FFF" d="M33 27L33.992 28 34 28 33.008 27zM15 27L15 28 22.428 28 23 27z" transform="translate(-1160 -2025) translate(1160 2025)"/>
            <path fill="#FFF" d="M23 27L22.989 27 22 28 22.011 28z" transform="translate(-1160 -2025) translate(1160 2025)"/>
            <path fill="#FFF" d="M32.715 28.202L32.167 27.236 27.501 19 22.835 27.236 22.287 28.202 19 34 20.239 34 34.763 34 36 34z" transform="translate(-1160 -2025) translate(1160 2025)"/>
            <path fill="#FFF" fill-rule="nonzero" d="M54.384 1.59v51.82H1.616V1.59h52.768zM56 0H0v55h56V0zM5 66H3.818l-.377-1.183H1.557L1.182 66H0l1.826-5h1.342L5 66zm-1.82-2.071l-.586-1.82c-.045-.15-.076-.263-.092-.336-.078.29-.3 1.01-.668 2.156H3.18z" transform="translate(-1160 -2025) translate(1160 2025)"/>
            <path fill="#FFF" d="M9 65.124L9 66 5 66 5 65.313 7.581 61.876 5.068 61.876 5.068 61 8.938 61 8.938 61.683 6.359 65.124z" transform="translate(-1160 -2025) translate(1160 2025)"/>
            <path fill="#FFF" fill-rule="nonzero" d="M10 61h1.46c.676 0 1.18.123 1.507.368.545.489.65 1.303.248 1.914-.175.24-.413.427-.688.539.805 1.2 1.296 1.927 1.473 2.179h-1.178l-1.19-1.918h-.571V66H10v-5zm1.061.868v1.35h.343c.259.02.518-.039.744-.166.164-.122.254-.32.238-.523.018-.2-.074-.395-.24-.509-.236-.118-.499-.17-.762-.152h-.323z" transform="translate(-1160 -2025) translate(1160 2025)"/>
            <path fill="#FFF" d="M16 66L15 66 15 61 16 61zM21 61.868L19.106 61.868 19.106 62.967 20.866 62.967 20.866 63.835 19.106 63.835 19.106 65.124 21 65.124 21 66 18 66 18 61 21 61zM23.03 65.124L25 65.124 25 66 22 66 22 61 23.03 61zM27 66L26 66 26 61 27 61zM34.996 65.7c-.547.206-1.117.308-1.69.3-.726 0-1.292-.262-1.698-.786-.406-.523-.608-1.261-.607-2.213-.011-.553.092-1.102.298-1.596.194-.447.496-.811.866-1.041.413-.252.87-.376 1.332-.363.491-.003.978.114 1.43.344l-.216.598c-.395-.213-.82-.327-1.252-.335-.51-.036-1.01.195-1.37.636-.33.422-.493 1.016-.493 1.785 0 .77.158 1.356.474 1.763.316.406.782.612 1.395.612.328-.001.656-.049.976-.141v-1.8h-1.075v-.605H35l-.004 2.841z" transform="translate(-1160 -2025) translate(1160 2025)"/>
            <path fill="#FFF" fill-rule="nonzero" d="M36.009 61h1.553c.694 0 1.206.117 1.54.35.349.264.534.658.5 1.062 0 .662-.38 1.108-1.14 1.342L40 66h-.779l-1.38-2.08h-1.183V66H36l.009-5zm.658.51v1.91h.898c.361.027.722-.059 1.02-.24.232-.19.352-.461.329-.738.027-.271-.097-.537-.333-.713-.32-.17-.692-.246-1.064-.22h-.85zM41 62.999c0-.951.216-1.69.647-2.214C42.08 60.26 42.7 60 43.491 60c.792 0 1.411.265 1.851.796.44.531.658 1.266.658 2.203 0 .937-.216 1.669-.66 2.202-.444.534-1.048.799-1.836.799-.787 0-1.408-.26-1.846-.785C41.22 64.691 41 63.948 41 63zm4.34 0c0-.787-.155-1.385-.462-1.79-.339-.421-.844-.647-1.363-.609-.522-.036-1.03.191-1.374.614-.315.407-.47 1.002-.47 1.785 0 .782.155 1.385.47 1.789.343.422.85.65 1.372.614.52.039 1.025-.188 1.363-.612.309-.406.464-1.002.464-1.791z" transform="translate(-1160 -2025) translate(1160 2025)"/>
            <path fill="#FFF" d="M50.997 61v3.188c.03.496-.168.98-.541 1.328-.408.337-.939.51-1.48.48-.535.031-1.062-.144-1.458-.486-.358-.36-.544-.842-.515-1.335V61h.608v3.216c-.026.35.105.694.359.949.609.443 1.458.443 2.066 0 .251-.258.38-.602.356-.951V61h.605z" transform="translate(-1160 -2025) translate(1160 2025)"/>
            <path fill="#FFF" fill-rule="nonzero" d="M53 61h1.226c1.183 0 1.773.485 1.772 1.456.024.45-.158.886-.49 1.169-.327.273-.795.408-1.401.408h-.562V66H53v-5zm.55.503v2.03h.495c.49 0 .842-.083 1.06-.25.203-.197.32-.475.324-.766.002-.292-.11-.571-.31-.772-.286-.184-.62-.269-.954-.242h-.614z" transform="translate(-1160 -2025) translate(1160 2025)"/>
        </g>
    </g>
</svg>
