<svg xmlns="http://www.w3.org/2000/svg" width="159" height="38" viewBox="0 0 159 38">
    <g fill="none" fill-rule="evenodd">
        <g fill="#FFF" opacity=".4">
            <path d="M68 13L68 27 64 27 64 13zM79.642 16.19l-2.68.904c-.257-1.002-1.227-1.682-2.3-1.61-1.245 0-1.868.407-1.868 1.223-.006.31.12.608.351.825.232.227.759.424 1.58.59 1.032.18 2.041.463 3.012.844 1.386.662 2.262 2.02 2.263 3.505.011 1.202-.496 2.354-1.403 3.183-.937.896-2.324 1.343-4.161 1.343-1.247.038-2.476-.292-3.521-.945-.996-.673-1.682-1.69-1.915-2.837l2.917-.665c.328 1.26 1.24 1.891 2.736 1.891.572.041 1.141-.108 1.612-.422.332-.24.529-.614.532-1.012.016-.367-.166-.716-.482-.924-.577-.314-1.208-.528-1.863-.63-1.71-.36-2.93-.849-3.659-1.469-.729-.62-1.091-1.515-1.087-2.685-.023-1.149.453-2.255 1.314-3.054.876-.828 2.056-1.243 3.54-1.245 2.633-.004 4.326 1.059 5.082 3.19z" transform="translate(-802 -2034) translate(802 2034)"/>
            <path fill-rule="nonzero" d="M86.18 21.445V27H83V13.005h5.92c.893-.032 1.786.1 2.63.393.695.291 1.273.801 1.644 1.45.438.706.666 1.518.658 2.345 0 1.681-.78 2.887-2.338 3.616L94 26.997h-3.492l-2.069-5.552H86.18zm0-5.957v3.571h1.934c.463.02.927-.027 1.377-.14.317-.114.585-.33.763-.613.223-.322.338-.704.33-1.094.006-.374-.11-.74-.33-1.045-.17-.265-.428-.464-.73-.565-.487-.09-.984-.127-1.48-.107l-1.864-.007zM103.508 13L108 27h-3.613l-.883-2.881h-4.657l-.9 2.881H95l4.615-14h3.893zm-3.855 8.533h3.049l-1.507-4.914-1.542 4.914z" transform="translate(-802 -2034) translate(802 2034)"/>
            <path d="M119 18.275l-3.443.208c-.048-1.915-.82-2.873-2.319-2.876-1.717 0-2.576 1.476-2.576 4.428 0 1.703.228 2.857.685 3.464.439.594 1.18.938 1.96.91 1.37 0 2.201-.855 2.493-2.566l3.186.189c-.205 1.624-.831 2.86-1.877 3.706-1.063.848-2.433 1.298-3.84 1.26-1.739.048-3.407-.636-4.529-1.858-1.16-1.241-1.74-2.955-1.74-5.143 0-2.047.562-3.726 1.685-5.038 1.124-1.312 2.659-1.965 4.604-1.959 3.385.008 5.289 1.767 5.711 5.275z" transform="translate(-802 -2034) translate(802 2034)"/>
            <path fill-rule="nonzero" d="M128.5 13l4.5 14h-3.609l-.883-2.881h-4.657L122.949 27H120l4.605-14h3.896zm-3.857 8.533h3.048l-1.512-4.914-1.536 4.914zM138.177 21.445V27H135V13.005h5.92c.893-.033 1.786.1 2.63.393.696.29 1.274.8 1.644 1.45.438.706.666 1.518.658 2.345 0 1.681-.78 2.887-2.338 3.616L146 26.997h-3.486l-2.075-5.552h-2.262zm0-5.957v3.571h1.933c.464.02.928-.027 1.378-.14.318-.114.587-.33.766-.613.223-.322.338-.704.33-1.094.006-.374-.11-.74-.33-1.045-.17-.265-.428-.464-.73-.565-.488-.09-.986-.127-1.483-.107l-1.864-.007zM147 13h4.463c1.82 0 3.176.24 4.067.722.989.572 1.812 1.352 2.399 2.276.714 1.042 1.071 2.362 1.071 3.96 0 2.007-.618 3.681-1.853 5.023-1.235 1.342-2.937 2.015-5.106 2.019H147V13zm3.363 2.575v8.804h1.428c1.129.06 2.2-.457 2.782-1.34 1.048-1.678 1.185-3.704.371-5.487-.251-.614-.7-1.144-1.289-1.522-.559-.301-1.2-.452-1.85-.435l-1.442-.02z" transform="translate(-802 -2034) translate(802 2034)"/>
            <path d="M30.297 29.53c-2.352 2.265-4.738 4.508-7.107 6.767-2.369 2.259-4.98 2.292-7.372-.027-4.586-4.438-9.166-8.877-13.74-13.318-2.764-2.697-2.764-5.129-.038-7.793L15.746 1.804c2.465-2.398 5.048-2.402 7.499-.033l6.96 6.69c-.34.413-.644.861-1.022 1.236-2.018 1.994-4.074 3.947-6.078 5.95-1.772 1.767-2.007 3.472-.76 5.667L32.69 11.146l2.843 2.77c-3.502 3.404-6.997 6.804-10.485 10.199.883.923 1.66 1.74 2.68 2.814l10.47-10.259c1.282 2.12 1.023 3.92-.746 5.714-2.382 2.392-4.767 4.774-7.155 7.146z" transform="translate(-802 -2034) translate(802 2034)"/>
            <path d="M29.769 29.517l7.183-7.147c1.792-1.791 2.052-3.589.749-5.705L27.19 26.92c-1.026-1.071-1.803-1.887-2.689-2.81 3.503-3.395 7.01-6.789 10.522-10.18l-2.853-2.76-10.38 10.145c-1.253-2.192-1.027-3.893.762-5.658 2.011-1.99 4.074-3.95 6.098-5.94.38-.374.685-.822 1.027-1.233l7.087-6.802c2.274-2.162 4.932-2.279 7.2-.123 4.868 4.625 9.689 9.302 14.461 14.029 2.203 2.178 2.053 4.792-.188 6.987-4.693 4.57-9.396 9.132-14.109 13.684-2.394 2.321-5.025 2.321-7.43 0-2.322-2.225-4.62-4.484-6.929-6.742z" opacity=".4" transform="translate(-802 -2034) translate(802 2034)"/>
        </g>
    </g>
</svg>
