<svg xmlns="http://www.w3.org/2000/svg" width="139" height="20" viewBox="0 0 139 20">
    <g fill="none" fill-rule="evenodd">
        <g fill="#FFF" opacity=".4">
            <path d="M4.651 15.659c0 1.149.046 1.96.382 2.353.271.321.63.506 2.421.506 2.475.015 2.856-.087 3.88-2.467.236-.116.518-.06.695.137-.233 1.137-.552 2.253-.955 3.337-.943-.047-2.871-.07-5.384-.07H3.376c-1.146 0-2.269.023-3.208.07-.168-.094-.244-.552-.046-.666l.676-.118c1.05-.137 1.253-.208 1.253-2.6V7.576C2.05 5.18 1.848 5.11.798 4.95l-.63-.09C0 4.74 0 4.282.214 4.189c1.119.046 2.127.07 3.158.07 1.03 0 1.997-.024 2.986-.07.096.08.155.198.164.324.008.127-.034.252-.118.346l-.497.09c-1.053.16-1.256.231-1.256 2.627v8.083zM16.378 5.71c0 1.749-1.527 3.039-3.055 3.431-.168-.147-.232-.385-.16-.6.966-.416 1.802-1.09 1.802-2.094 0-.76-.672-1.13-1.21-1.196-.406-.052-.706-.412-.695-.831 0-.393.267-1.083 1.28-1.083 1.095 0 2.038 1.106 2.038 2.373" transform="translate(-178 -2243) translate(178 2243)"/>
            <path fill-rule="nonzero" d="M35.69 10.765c0-4.75-2.047-9.875-7.401-9.875-2.914 0-6.698 2.043-6.698 8.35 0 4.258 2.02 9.803 7.538 9.803 3.364 0 6.56-2.592 6.56-8.259m-16.901-.623C18.788 4.404 22.992 0 28.766 0c6.492 0 9.726 4.808 9.726 9.87 0 5.816-4.319 10.048-9.726 10.048-6.236 0-9.978-4.58-9.978-9.757" transform="translate(-178 -2243) translate(178 2243)"/>
            <path d="M54.557 8.125c-.2.188-.5.208-.721.048-.382-1.451-1.39-3.361-4.35-3.361-2.848 0-5.728 2.07-5.728 6.792 0 4.906 2.983 7.298 5.873 7.298 2.826 0 4.06-1.933 4.69-3.431.098-.088.228-.128.357-.11.128.018.243.092.315.204-.12 1.23-.486 2.42-1.077 3.498-.267.047-.538.14-.787.208-1.133.341-2.305.527-3.486.553-2.219 0-4.124-.46-5.728-1.542-1.814-1.223-3.181-3.317-3.181-6.333-.057-2.374.98-4.636 2.799-6.102 1.808-1.312 3.976-1.999 6.19-1.96 1.306.018 2.607.187 3.876.505.271.07.428.094.63.141.046.53.092 1.887.317 3.589M70.115 8.125c-.199.188-.498.207-.718.048-.382-1.451-1.39-3.361-4.35-3.361-2.848 0-5.728 2.07-5.728 6.792 0 4.906 2.983 7.298 5.874 7.298 2.825 0 4.059-1.933 4.685-3.431.098-.088.228-.128.357-.11.129.018.244.092.315.204-.11 1.228-.467 2.42-1.05 3.498-.267.047-.538.14-.783.208-1.137.342-2.313.528-3.498.553-2.218 0-4.124-.46-5.728-1.542-1.814-1.223-3.185-3.317-3.185-6.333-.05-2.378.998-4.641 2.826-6.102 1.807-1.312 3.974-1.999 6.187-1.96 1.307.018 2.609.187 3.88.505.27.07.427.094.63.141.041.53.087 1.887.313 3.589M76.167 16.141c0 2.44.203 2.51 1.257 2.643l.492.075c.158.2.138.491-.045.666-.986-.047-1.994-.07-2.983-.07-.989 0-2.039.023-3.024.07-.184-.175-.204-.466-.046-.666l.493-.075c1.057-.133 1.256-.204 1.256-2.643V7.576c0-2.443-.199-2.51-1.256-2.65l-.493-.067c-.157-.165-.134-.577.046-.667.985.045 1.993.067 3.024.067.99 0 1.997-.024 2.983-.067.179.09.202.502.045.667l-.492.066c-1.054.142-1.257.208-1.257 2.651v8.565zM85.248 6.192c0-.965-.023-1.012-.607-1.012h-1.256c-2.062 0-2.673.255-3.494 2.118-.245.137-.551.069-.718-.16.382-1.244.718-2.671.87-3.48.064-.068.157-.102.249-.09.084-.007.168.026.225.09.11.577.424.6 1.947.6h9.165c1.1 0 1.436-.066 1.703-.6.084-.048.176-.08.272-.09.108-.009.215.033.29.114-.248 1.204-.361 2.433-.336 3.663-.183.198-.48.226-.695.067-.29-1.796-.718-2.232-3.116-2.232h-1.28c-.58 0-.603.047-.603 1.012v9.95c0 2.438.199 2.509 1.256 2.623l.806.094c.158.2.138.491-.046.666-1.298-.047-2.29-.07-3.295-.07s-2.04.023-3.475.07c-.182-.176-.202-.465-.046-.666l.943-.118c1.054-.09 1.257-.16 1.257-2.6l-.016-9.949z" transform="translate(-178 -2243) translate(178 2243)"/>
            <path fill-rule="nonzero" d="M101.478 12.78c.63 0 .718-.047.538-.6l-.94-2.745c-.157-.623-.367-1.232-.626-1.82h-.045c-.092.161-.272.742-.672 1.82l-.944 2.694c-.244.671-.18.671.36.671l2.329-.02zm-2.673 1.036c-.585 0-.562 0-.764.62l-.917 2.744c-.45 1.357-.359 1.428.466 1.542l.653.117c.157.161.138.573-.046.667-.718-.047-1.455-.047-2.375-.07-.74 0-1.436.023-2.218.07-.168-.186-.178-.47-.023-.667l.672-.117c.653-.09.893-.298 1.233-1.06.271-.6.626-1.568 1.1-2.807l3.055-8.2c.29-.733.492-1.286.424-1.679.786-.16 1.527-1.105 1.573-1.105.15-.008.293.06.382.184.359 1.035.653 2.118 1.012 3.157l3.223 9.65c.515 1.542.63 1.703 1.772 1.91l.336.071c.174.183.184.472.023.667-.92-.047-1.75-.07-2.918-.07-.962 0-1.947.046-2.73.07-.176-.177-.205-.457-.069-.667l.493-.07c.805-.095.874-.232.584-1.22l-1.058-3.137c-.221-.62-.29-.62-.92-.62l-2.963.02z" transform="translate(-178 -2243) translate(178 2243)"/>
            <path d="M123.183 15.541c0 .69 0 3.53.069 4.055-.186.233-.473.354-.764.322-.359-.487-1.008-1.267-2.623-3.138l-5.247-6.164c-1.459-1.683-2.173-2.557-2.555-2.902-.069 0-.069.25-.069 1.474v4.49c0 1.722.023 3.844.405 4.534.202.345.58.486 1.146.572l.492.075c.203.16.18.596-.042.666-.832-.047-1.707-.07-2.558-.07-.94 0-1.547.023-2.33.07-.092-.081-.15-.198-.158-.323-.008-.125.032-.249.113-.343l.492-.118c.428-.066.829-.16.99-.53.29-.713.29-2.717.29-4.533V8.235c0-1.796.022-2.164-.741-2.831-.367-.225-.769-.382-1.188-.463l-.336-.066c-.157-.138-.134-.6.088-.667.851.09 2.085.067 2.646.067.47 0 1.008-.024 1.547-.067.382.988 2.825 3.89 3.608 4.765l2.242 2.486c.943 1.059 3.028 3.502 3.257 3.639.065-.07.065-.184.065-.553V10.04c0-1.725-.023-3.847-.428-4.537-.198-.345-.56-.482-1.122-.577l-.516-.066c-.202-.161-.175-.6.046-.667.875.043 1.703.067 2.578.067.966 0 1.55-.024 2.356-.067.092.082.15.198.158.324.009.125-.032.248-.112.343l-.516.114c-.428.07-.806.16-.966.529-.313.714-.313 2.718-.313 4.537l-.004 5.502zM128.342 7.576c0-2.443-.202-2.51-1.26-2.674l-.355-.043c-.158-.202-.138-.494.046-.67.851.046 1.909.07 2.89.07h4.281c1.436 0 2.734-.024 3.028-.07.088.391.226 2.211.36 3.203-.089.184-.54.228-.719.09-.359-1.333-.695-1.91-1.413-2.094-.584-.153-1.187-.223-1.79-.208h-1.505c-.962 0-.962.047-.962 1.357v3.894c0 .596.022.62.538.62h1.073c1.951 0 2.333-.024 2.49-1.012l.156-.784c.18-.16.608-.16.718.023-.023.624-.068 1.451-.068 2.302s.045 1.683.068 2.42c-.11.16-.538.16-.718.024l-.156-.922c-.157-.969-.539-1.012-2.49-1.012h-1.073c-.516 0-.538.043-.538.62v2.925c0 1.177.042 2 .381 2.392.272.322.653.506 2.536.506 2.849.047 3.341-.62 4.124-2.486.238-.157.554-.094.718.141-.184 1.147-.5 2.267-.94 3.337-.988-.047-2.917-.07-5.54-.07h-2.555c-.989 0-2.356.023-3.364.07-.184-.175-.203-.468-.042-.666l.825-.094c1.057-.114 1.26-.185 1.26-2.624l-.004-8.565z" transform="translate(-178 -2243) translate(178 2243)"/>
        </g>
    </g>
</svg>
