<svg xmlns="http://www.w3.org/2000/svg" width="178" height="55" viewBox="0 0 178 55">
    <g fill="none" fill-rule="evenodd">
        <g fill="#FFF" opacity=".4">
            <path d="M29.205.698L6.204 9.565c-.912.43-1.298 1.435-.673 2.095.14.163.32.29.52.368 3.498 1.382 17.456 7.968 20.52 9.216.777.255 1.617.241 2.386-.038l22.381-10.421c.912-.43 1.303-1.435.678-2.095-.14-.165-.318-.292-.52-.368-3.512-1.378-7.058-2.722-10.58-4.08-3.126-1.19-6.3-2.329-9.368-3.587-.346-.126-.714-.186-1.083-.177-.43-.01-.858.064-1.26.22M43.159 16.639c-3.694 1.712-7.368 3.448-11.047 5.194-3.265 1.535-6.495 3.137-9.769 4.6-.705.358-1.187 1.042-1.288 1.827V52.61c.087 1.132 1.028 2.007 2.161 2.008.257.014.513-.03.75-.129 3.712-1.712 7.358-3.477 11.042-5.227 3.245-1.526 6.462-3.128 9.73-4.577.724-.357 1.223-1.05 1.332-1.851v-24.31c-.087-1.135-1.03-2.012-2.167-2.013-.254-.014-.509.03-.744.129" opacity=".4" transform="translate(-474 -2225) translate(474 2225)"/>
            <path d="M.2 5.835c-.123.226-.191.478-.2.736v12.225c0 3.615.095 7.226.033 10.818.03.8.456 1.532 1.136 1.951l22.004 10.283h1.523c.533-.202.968-.603 1.212-1.12.12-.225.186-.475.195-.731 0-4.07 0-8.13-.023-12.23 0-3.586-.1-7.173-.029-10.77-.019-.808-.437-1.553-1.117-1.99l-22-10.287c-.228-.105-.477-.159-.73-.157-.853.01-1.629.502-2.004 1.272" opacity=".6" transform="translate(-474 -2225) translate(474 2225)"/>
            <path d="M22.386 26.548c-.707.357-1.191 1.041-1.293 1.827v12.497l2.08.957h1.523c.533-.202.968-.603 1.212-1.12.12-.225.186-.476.195-.731 0-4.07 0-8.13-.023-12.23v-2.907c-1.217.579-2.444 1.148-3.67 1.693M6.204 9.565c-.912.43-1.298 1.435-.673 2.095.14.163.32.29.52.368 3.34 1.31 16.068 7.313 19.962 8.987 0-1.349 0-2.693.024-4.037-.02-.808-.438-1.554-1.117-1.99L10.112 8.074 6.204 9.565z" opacity=".6" transform="translate(-474 -2225) translate(474 2225)"/>
            <path d="M59.46 25.826c.044.514.218 1.008.506 1.435.478.583 1.236.875 2.339.875.545.017 1.09-.06 1.608-.23.708-.206 1.19-.862 1.179-1.602.014-.441-.208-.857-.583-1.09-.571-.318-1.19-.543-1.832-.665l-1.432-.34c-1.021-.183-2.001-.55-2.892-1.085-.906-.66-1.36-1.685-1.36-3.075-.03-1.197.446-2.351 1.313-3.176.871-.842 2.155-1.263 3.85-1.263 1.309-.034 2.588.389 3.618 1.196 1.029.845 1.609 2.12 1.57 3.453h-2.682c.01-.756-.395-1.456-1.054-1.822-.506-.253-1.068-.374-1.633-.354-.612-.025-1.218.142-1.732.478-.42.293-.662.78-.644 1.292-.023.47.225.914.64 1.138.555.268 1.142.465 1.746.588l2.315.588c.83.175 1.613.527 2.295 1.033.826.73 1.268 1.802 1.198 2.903.022 1.238-.502 2.423-1.432 3.238-.923.845-2.24 1.268-3.951 1.268-1.712 0-3.086-.421-4.123-1.263-1.017-.878-1.57-2.177-1.499-3.52h2.673zM68.828 30.221L68.828 16.012 71.601 16.012 71.601 21.431 76.845 21.431 76.845 16.012 79.632 16.012 79.632 30.221 76.845 30.221 76.845 23.88 71.601 23.88 71.601 30.221zM81.064 16.012H83.851V30.221H81.064zM85.488 16.012L88.246 16.012 88.246 21.866 93.424 16.012 97.046 16.012 91.548 21.866 97.327 30.221 93.724 30.221 89.582 24.013 88.246 25.472 88.246 30.221 85.488 30.221zM97.88 16.012h2.864v8.733c-.043.73.07 1.46.33 2.143.338.794 1.078 1.195 2.218 1.195 1.141 0 1.871-.401 2.215-1.195.255-.684.366-1.414.324-2.143v-8.733h2.864v8.733c.06 1.213-.17 2.423-.669 3.53-.84 1.556-2.422 2.334-4.748 2.334-2.325 0-3.903-.772-4.734-2.315-.497-1.107-.725-2.317-.663-3.53v-8.752zM110.274 16.012L113.214 16.012 118.558 25.931 118.558 16.012 121.169 16.012 121.169 30.221 118.368 30.221 112.889 20.13 112.889 30.221 110.274 30.221z" transform="translate(-474 -2225) translate(474 2225)"/>
            <path fill-rule="nonzero" d="M123.245 23.593c.4-.553.905-1.02 1.489-1.373l.214-.134c-.276-.326-.507-.688-.687-1.076-.157-.359-.238-.746-.238-1.138-.038-.692.235-1.364.744-1.832.532-.451 1.212-.688 1.909-.665.661-.021 1.304.224 1.785.68.473.444.732 1.071.71 1.721.026.546-.124 1.086-.429 1.54-.334.447-.756.82-1.24 1.095l1.431 1.885c.17-.255.298-.534.382-.828.094-.31.142-.632.143-.956h1.775c-.046 1.167-.45 2.291-1.16 3.218l1.847 2.349h-2.386l-.687-.895c-.284.29-.605.541-.954.746-.558.296-1.183.444-1.814.43-.85.043-1.681-.265-2.3-.85-.62-.586-.975-1.4-.983-2.253-.01-.59.156-1.17.477-1.664m2.778-3.18c.165.259.343.51.534.75.217-.148.416-.322.592-.516.218-.233.342-.538.348-.857.001-.216-.07-.427-.205-.597-.157-.182-.39-.28-.63-.263-.17.002-.337.055-.477.153-.236.159-.37.433-.348.717.008.218.075.43.195.612m-.868 5.74c.27.295.655.457 1.054.444.318.002.63-.079.907-.234.262-.139.5-.318.706-.531l-1.875-2.396c-.38.24-.712.55-.978.913-.159.263-.241.564-.239.87.012.36.159.701.41.957M136.234 18.48v3.133h3.298c.5.021.996-.098 1.432-.345.393-.29.604-.766.553-1.253.063-.552-.235-1.083-.74-1.315-.517-.162-1.057-.236-1.598-.22h-2.945zm0 5.486v3.773h3.298c.471.024.941-.062 1.374-.249.597-.31.893-.899.893-1.774.059-.64-.286-1.248-.864-1.526-.43-.174-.892-.256-1.355-.239l-3.346.015zm7.34-6.438c.426.64.642 1.398.62 2.167.037.748-.182 1.487-.62 2.095-.282.336-.63.611-1.021.808.65.225 1.202.668 1.565 1.253.367.63.55 1.351.525 2.08.01.804-.201 1.595-.61 2.286-.244.43-.568.809-.955 1.115-.445.357-.969.603-1.527.717-.628.133-1.268.197-1.91.191h-6.084V16.012h6.524c1.641.024 2.81.531 3.493 1.516z" transform="translate(-474 -2225) translate(474 2225)"/>
            <path d="M145.736 16.012H148.523V30.221H145.736zM150.064 16.012L153.004 16.012 158.348 25.931 158.348 16.012 160.964 16.012 160.964 30.221 158.158 30.221 152.674 20.13 152.674 30.221 150.064 30.221zM162.548 16.012h2.863v8.733c-.044.73.067 1.46.325 2.143.338.794 1.083 1.195 2.223 1.195 1.141 0 1.871-.401 2.21-1.195.26-.683.372-1.413.33-2.143v-8.733h2.863v8.733c.06 1.213-.166 2.423-.664 3.53-.84 1.556-2.422 2.334-4.748 2.334s-3.907-.778-4.744-2.334c-.499-1.107-.728-2.317-.668-3.53l.01-8.733zM174.879 16.012H177.666V30.221H174.879z" transform="translate(-474 -2225) translate(474 2225)"/>
        </g>
    </g>
</svg>
