<svg xmlns="http://www.w3.org/2000/svg" xmlns:xlink="http://www.w3.org/1999/xlink" width="391" height="475" viewBox="0 0 391 475">
    <defs>
        <path id="prefix__a" d="M0 0H391V475H0z"/>
        <path id="prefix__c" d="M0.303 0.208L43.62 0.208 43.62 49.152 0.303 49.152z"/>
        <path id="prefix__e" d="M0 33.604L155 33.604 155 0 0 0z"/>
        <path id="prefix__g" d="M0.485 0.57L82.465 0.57 82.465 62.3 0.485 62.3z"/>
    </defs>
    <g fill="none" fill-rule="evenodd">
        <g transform="translate(-97 -5162) translate(97 5162)">
            <mask id="prefix__b" fill="#fff">
                <use xlink:href="#prefix__a"/>
            </mask>
            <use fill="#1B1B1B" xlink:href="#prefix__a"/>
            <g mask="url(#prefix__b)">
                <g>
                    <g opacity=".2">
                        <path fill="#FFF" d="M0 7.695L0 42.619 43.61 42.619 43.61 34.672 7.996 34.672 7.996 7.695zM52.096 42.62L60.032 42.62 60.032 7.696 52.096 7.696zM147.059 7.695L134.521 21.183 128.283 21.183 128.283 7.695 120.348 7.695 120.348 42.619 128.283 42.619 128.283 29.133 134.521 29.133 147.059 42.619 155.6 42.619 155.6 40.573 141.547 25.159 155.6 9.744 155.6 7.695z" transform="translate(118 69)"/>
                        <g transform="translate(118 69) translate(68.197 .64)">
                            <mask id="prefix__d" fill="#fff">
                                <use xlink:href="#prefix__c"/>
                            </mask>
                            <path fill="#FFF" d="M8.418 14.272h9.565V38.94c0 1.772 1.53 3.293 3.395 3.293h18.934c1.781 0 3.308-1.52 3.308-3.293V.208h-8.115v34.88h-9.564V10.42c0-1.771-1.53-3.292-3.396-3.292H3.611c-1.782 0-3.308 1.52-3.308 3.292v38.733h8.115v-34.88z" mask="url(#prefix__d)"/>
                        </g>
                    </g>
                    <g transform="translate(118 69) translate(1 145)">
                        <path fill="#FFF" d="M0 8.974L5.785 8.974 5.785 28.527 31.555 28.527 31.555 34.287 0 34.287z"/>
                        <mask id="prefix__f" fill="#fff">
                            <use xlink:href="#prefix__e"/>
                        </mask>
                        <path fill="#FFF" d="M40.552 33.604h5.743V8.291h-5.743v25.313zm0-27.843h5.743V0h-5.743v5.76zM100.61 14.998v19.29h-5.74v-19.29c0-.176-.132-.306-.307-.306H80.845c-.176 0-.306.13-.306.306v19.29h-5.742V8.973h19.766c3.33 0 6.047 2.707 6.047 6.024M155.275 8.974L155.275 10.459 145.108 21.632 155.275 32.805 155.275 34.287 149.096 34.287 140.024 24.512 135.51 24.512 135.51 34.287 129.767 34.287 129.767 8.974 135.51 8.974 135.51 18.75 140.024 18.75 149.096 8.974z" mask="url(#prefix__f)"/>
                        <path fill="#FFF" d="M0 33.902L78.016 33.902 78.016 27.821 0 27.821zM100.029 33.902L130.005 33.902 130.005 27.821 100.029 27.821z" mask="url(#prefix__f)"/>
                    </g>
                    <g opacity=".2">
                        <path fill="#EFEFEF" d="M0 6.75L0 49.655 21.056 49.655 21.056 42.858 10.122 42.858 10.122 6.75z" transform="translate(118 69) translate(24 275)"/>
                        <g transform="translate(118 69) translate(24 275) translate(25.247 .13)">
                            <mask id="prefix__h" fill="#fff">
                                <use xlink:href="#prefix__g"/>
                            </mask>
                            <path fill="#EFEFEF" d="M.798 49.525h9.746V15.912H.798v33.613zM5.671 10.86C2.797 10.86.485 8.802.485 6.246c0-2.558 2.312-4.553 5.186-4.553s5.186 1.995 5.186 4.553c0 2.556-2.312 4.614-5.186 4.614zM70.094 31.689l11.37-15.777H71.156l-9.684 15.402h-.125V.57h-9.684v30.306h-.02v19.227h.017c-.077 1.663-1.446 2.995-3.13 2.995-1.735 0-2.976-1.409-2.976-3.14V26.824c0-7.234-4.578-11.537-15.2-11.537-5.187 0-9.808.81-13.62 2.432v31.805h9.748V21.96c1.186-.437 2.373-.687 3.872-.687 3.874 0 5.436 1.81 5.436 5.488v6.454h-.039s-.031 17.036 0 17.402v.05h.003c.588 6.52 6.069 11.632 12.75 11.632 6.682 0 12.25-5.112 12.843-11.631l.01-17.453h-.01v-.092h.125l9.933 16.4h11.06L70.094 31.69z" mask="url(#prefix__h)"/>
                        </g>
                    </g>
                </g>
            </g>
        </g>
    </g>
</svg>
