<svg xmlns="http://www.w3.org/2000/svg" width="64" height="23" viewBox="0 0 64 23">
    <path fill="#FFF" fill-rule="evenodd" d="M1.17.149l2.824 6.173L6.829.15h1.158v8.003H7.11V1.543L4.444 7.42h-.9L.877 1.543v6.609H0V.149h1.17zm18.416 5.407h-3.083l-.945 2.596h-.922L17.583.149h.923l2.947 8.003h-.922l-.945-2.596zm-.27-.8l-1.271-3.59-1.26 3.59h2.53zm8.111-.606c0-2.355 1.732-4.15 4.016-4.15 2.295 0 4.016 1.818 4.016 4.15 0 2.355-1.732 4.15-4.027 4.15-2.284 0-4.005-1.772-4.005-4.15zm.945 0c0 1.898 1.327 3.281 3.071 3.281 1.744 0 3.071-1.383 3.071-3.28 0-1.876-1.327-3.282-3.07-3.282-1.745 0-3.072 1.406-3.072 3.281zm14.04 4.002V.149h2.002c1.609 0 2.453.823 2.453 2.218 0 .949-.462 1.817-1.373 2.115l1.958 3.67h-1.013l-1.777-3.476h-1.34v3.476h-.91zm.91-4.288h1.092c.923 0 1.496-.434 1.496-1.486 0-.846-.438-1.406-1.552-1.406h-1.035v2.892zM.013 22.851v-8.003h.91v3.682l3.14-3.682h1.102l-3.308 3.83L5.3 22.851H4.185L.922 18.827v4.024h-.91zm11.294-4.001c0-2.355 1.732-4.15 4.016-4.15 2.295 0 4.016 1.817 4.016 4.15 0 2.355-1.732 4.15-4.027 4.15-2.284 0-4.005-1.772-4.005-4.15zm.945 0c0 1.898 1.327 3.281 3.071 3.281 1.744 0 3.071-1.383 3.071-3.281 0-1.875-1.327-3.281-3.07-3.281-1.745 0-3.072 1.406-3.072 3.28zm15.176 4.001v-7.157h-2.126v-.846h5.152v.846h-2.115v7.157h-.911zm9.9 0v-8.003h.911v7.169h2.947v.834h-3.858zm10.676 0v-8.003h3.735v.846h-2.824v2.664h2.464v.835h-2.464v2.824h2.947v.834h-3.858zm10.957 0v-8.003h2.003c1.608 0 2.452.823 2.452 2.218 0 .95-.461 1.818-1.372 2.115L64 22.851h-1.012l-1.778-3.475h-1.339v3.475h-.91zm.911-4.287h1.092c.922 0 1.496-.434 1.496-1.486 0-.846-.439-1.407-1.553-1.407h-1.035v2.893z" opacity=".8"/>
</svg>
