<svg xmlns="http://www.w3.org/2000/svg" xmlns:xlink="http://www.w3.org/1999/xlink" width="513" height="601" viewBox="0 0 513 601">
    <defs>
        <path id="prefix__a" d="M0 0H513V601H0z"/>
        <path id="prefix__c" d="M0 0.431L125.51 0.431 125.51 101.706 0 101.706z"/>
        <path id="prefix__e" d="M0 0.046L125.517 0.046 125.517 122 0 122z"/>
        <path id="prefix__g" d="M0 0.046L125.517 0.046 125.517 122 0 122z"/>
    </defs>
    <g fill="none" fill-rule="evenodd">
        <g transform="translate(-98 -9615) translate(98 9615)">
            <mask id="prefix__b" fill="#fff">
                <use xlink:href="#prefix__a"/>
            </mask>
            <use fill="#1B1B1B" xlink:href="#prefix__a"/>
            <g stroke-linecap="round" stroke-linejoin="round" mask="url(#prefix__b)" opacity=".5">
                <g>
                    <g>
                        <path stroke="#FFF" stroke-width="4" d="M11.53 5.272L93.362.807 63.979 113.001 50.322 111.046zM51.708 69.82L.999 72.795" transform="translate(299 126)"/>
                    </g>
                    <path stroke="#FFF" stroke-width="4" d="M8 90l49-9M44 40.393C51.641 34.5 61.187 31 71.539 31 96.647 31 117 51.582 117 76.97c0 10.552-3.516 20.273-9.426 28.03L44 40.393z" transform="translate(299 126)"/>
                </g>
            </g>
            <g mask="url(#prefix__b)" opacity=".5">
                <g>
                    <g transform="translate(94 115)">
                        <mask id="prefix__d" fill="#fff">
                            <use xlink:href="#prefix__c"/>
                        </mask>
                        <path fill="#FFF" d="M33.916 86.134c-2.345 2-5.186 2.982-8.2 2.947-8.056-.094-14.975-2.841-18.993-10.068-4.566-8.214-3.977-18.143 3.322-25.37 3.727-3.692 8.096-5.556 13.528-5.789 1.586 4.597 3.232 9.157 4.725 13.764 1.438 4.437 2.784 8.909 4.046 13.398.901 3.204 1.635 6.455 2.335 9.707.088.406-.371 1.077-.763 1.411m89.683-5.202c-2.85.417-5.7.873-8.519 1.467-7.36 1.553-14.706 3.185-22.057 4.785-6.198 1.35-12.395 2.71-18.597 4.044-7.943 1.709-15.89 3.407-23.84 5.088-2.99.632-5.994 1.202-8.963 1.794-.622-2.965-1.235-5.75-1.786-8.546-.517-2.624-.925-5.23-1.78-7.82-1.682-5.11-2.677-10.433-4.205-15.597-1.417-4.785-3.04-9.52-4.785-14.201-2.191-5.87-4.374-11.764-6.976-17.46-2.513-5.5-5.463-10.814-8.393-16.118C10.616 12.79 7.366 7.3 4.112 1.815 3.055.03 1.901-.034 0 1.653c8.142 13.64 15.721 27.69 22.014 42.416-7.847 1.488-14.269 4.65-18.386 11.306C.496 60.437-.47 66.067.356 71.843c.833 5.83 3.709 10.765 7.982 14.925 4.857 4.727 10.6 7.152 17.392 6.174 3.403-.49 6.68-1.823 10.267-2.845.414 2.435.939 4.978 1.26 7.547.416 3.325 2.143 4.585 5.474 3.867 12.031-2.592 24.067-5.16 36.1-7.742 8.706-1.866 17.403-3.759 26.115-5.598 5.671-1.197 11.33-2.493 17.051-3.381 2.223-.345 3.24-1.142 3.513-3.401-.67-.172-1.325-.544-1.911-.457" mask="url(#prefix__d)"/>
                    </g>
                    <path fill="#FFF" d="M72.579 30.004c4.297 9.003 2.645 21.318-12.135 27.16L47.402 20.611c7.345-4.143 20.29-.85 25.177 9.392M44.234 24.3c3.64 9.205 7.33 18.393 10.876 27.633 1.235 3.218 2.108 6.567 3.211 10.066 8.046-1.461 14.002-5.347 17.759-12.209 5.857-10.69 2.672-24.487-7.485-31.15-6.067-3.982-12.607-5.8-19.857-3.86-1.643.439-3.138 1.566-4.784 1.785-2.097.278-2.2 1.332-1.713 2.782.566 1.682 1.338 3.297 1.993 4.953M97.262 100.35c-9.805 3.906-19.611 7.806-29.437 11.654-6.235 2.442-12.51 4.788-18.763 7.186-9.775 3.745-19.566 7.457-29.295 11.322-.84.332-1.608 1.644-1.762 2.605-.089.562 1.103 1.333 1.606 1.883 3.483-1.36 6.505-2.513 9.504-3.72 6.7-2.692 13.368-5.465 20.086-8.106 6.74-2.651 13.532-5.168 20.291-7.772 9.796-3.776 19.58-7.581 29.371-11.368 1.229-.475 2.592-.913 1.99-2.653-.494-1.428-1.893-1.706-3.59-1.03" transform="translate(94 115)"/>
                </g>
            </g>
            <g mask="url(#prefix__b)" opacity=".5">
                <g>
                    <path fill="#FFF" d="M30.774 51.454c-.062.476-.598 1.125-1.053 1.28-4.525 1.527-9.062 3.023-13.644 4.361-.628.184-1.668-.374-2.266-.885-3.839-3.284-6.624-7.338-8.502-12.034-3.21-8.022-3.065-16.02.457-23.857 3.016-6.718 7.725-11.828 14.661-14.778C26.52 2.95 32.731 2.809 39.091 3.977c.22.038.419.183.788.35-.983 3.47-1.995 6.914-2.931 10.378-.74 2.745-1.485 5.495-2.03 8.282-.208 1.053-.517 1.535-1.578 1.654-7.125.794-14.246 1.621-21.365 2.448-1.04.12-2.118.174-3.093.511-.499.173-1.112.886-1.139 1.383-.048.867.483 1.472 1.57 1.34 3.936-.475 7.875-.904 11.816-1.338 4.16-.457 8.323-.9 12.615-1.363-1.002 8.143-1.951 15.993-2.97 23.832m7.833-24.486c8.117-.864 16.219-1.878 24.324-2.859.634-.077 1.256-.267 2.298-.497l4.927 16.116-36.291 11.757c.281-3.215.431-6.176.824-9.106.613-4.565 1.401-9.107 2.089-13.664.166-1.098.525-1.608 1.829-1.747m87.218 46.202c-.264-.491-1.06-.935-1.633-.962-.968-.046-1.957.223-2.928.416-8.134 1.617-16.265 3.253-24.4 4.86-1.151.228-2.322.347-3.399.503.207-8.266.783-16.306.503-24.317-.309-8.792-1.157-17.587-2.255-26.32-.728-5.78-2.218-11.472-3.546-17.16-.601-2.57-1.642-5.036-2.483-7.55l-.807.104c-.075.717-.323 1.467-.195 2.144 1.307 6.95 2.761 13.87 4.01 20.826 1.823 10.15 2.67 20.413 2.71 30.712.026 6.372-.495 12.742-.704 19.113-.104 3.132-.034 3.13-3.015 3.746-14.736 3.044-29.47 6.1-44.208 9.132-2.725.559-5.474 1.012-8.526 1.573-.261-2.474-.655-4.832-.733-7.199-.282-8.363-.461-16.73-.671-25.094-.08-3.172-.07-3.169 2.898-4.034.56-.163 1.103-.381 1.657-.561 8.202-2.66 16.4-5.328 24.606-7.97 3.05-.982 6.126-1.884 9.176-2.86 2.142-.687 2.4-1.338 1.51-3.281-.266-.58-.416-1.218-.586-1.838-1.331-4.837-2.648-9.68-3.987-14.514-.404-1.465-2.765-3.21-3.659-2.534-1.631 1.236-3.473 1.116-5.27 1.346-7.277.931-14.557 1.824-22.393 2.8 1.186-4.551 2.216-8.677 3.348-12.775.713-2.582 1.501-5.152 2.416-7.67.455-1.256.267-2.13-1.043-2.395-2.335-.47-4.67-1.04-7.035-1.248-8.931-.79-17.292 1.241-23.905 7.314C1.518 16.44-2.142 27.659 1.22 40.824c1.796 7.04 5.742 12.725 11.007 17.527 1.595 1.456 3.482 2.212 5.914 1.26 3.989-1.558 8.134-2.717 12.315-4.078 0 3.33-.115 6.524.022 9.709.371 8.499.848 16.992 1.291 25.487.015.282.037.744.192.812 1.516.667 2.648 2.444 4.738 1.516.938-.418 2.037-.473 3.067-.69 13.121-2.77 26.24-5.547 39.366-8.3 3.562-.748 7.143-1.411 10.93-2.156-1.192 11.924-3.577 23.327-7.032 34.492-3.467 11.2-7.737 22.036-13.148 32.509-5.185 10.033-10.622 19.795-17.536 28.353 0 .893-.048 1.595.018 2.288.039.414.143.942.423 1.18.27.235.914.356 1.192.19.57-.343 1.12-.84 1.481-1.401 1.891-2.943 3.661-5.965 5.585-8.886 5.115-7.769 9.543-15.93 13.45-24.352 4.353-9.375 8.349-18.922 10.99-28.944 2.006-7.617 3.809-15.293 5.464-22.994.916-4.264 1.342-8.632 2.002-13.033 6.646-1.325 13.279-2.635 19.906-3.977 3.945-.8 7.88-1.637 11.812-2.497.834-.183 1.714-.627 1.156-1.669" transform="translate(299 350)"/>
                    <path stroke="#FFF" d="M30.774 51.454c-.062.476-.598 1.125-1.053 1.28-4.525 1.527-9.062 3.023-13.644 4.361-.628.184-1.668-.374-2.266-.885-3.839-3.284-6.624-7.338-8.502-12.034-3.21-8.022-3.065-16.02.457-23.857 3.016-6.718 7.725-11.828 14.661-14.778C26.52 2.95 32.731 2.809 39.091 3.977c.22.038.419.183.788.35-.983 3.47-1.995 6.914-2.931 10.378-.74 2.745-1.485 5.495-2.03 8.282-.208 1.053-.517 1.535-1.578 1.654-7.125.794-14.246 1.621-21.365 2.448-1.04.12-2.118.174-3.093.511-.499.173-1.112.886-1.139 1.383-.048.867.483 1.472 1.57 1.34 3.936-.475 7.875-.904 11.816-1.338 4.16-.457 8.323-.9 12.615-1.363-1.002 8.143-1.951 15.993-2.97 23.832zm7.833-24.486c8.117-.864 16.219-1.878 24.324-2.859.634-.077 1.256-.267 2.298-.497l4.927 16.116-36.291 11.757c.281-3.215.431-6.176.824-9.106.613-4.565 1.401-9.107 2.089-13.664.166-1.098.525-1.608 1.829-1.747zm87.218 46.202c-.264-.491-1.06-.935-1.633-.962-.968-.046-1.957.223-2.928.416-8.134 1.617-16.265 3.253-24.4 4.86-1.151.228-2.322.347-3.399.503.207-8.266.783-16.306.503-24.317-.309-8.792-1.157-17.587-2.255-26.32-.728-5.78-2.218-11.472-3.546-17.16-.601-2.57-1.642-5.036-2.483-7.55l-.807.104c-.075.717-.323 1.467-.195 2.144 1.307 6.95 2.761 13.87 4.01 20.826 1.823 10.15 2.67 20.413 2.71 30.712.026 6.372-.495 12.742-.704 19.113-.104 3.132-.034 3.13-3.015 3.746-14.736 3.044-29.47 6.1-44.208 9.132-2.725.559-5.474 1.012-8.526 1.573-.261-2.474-.655-4.832-.733-7.199-.282-8.363-.461-16.73-.671-25.094-.08-3.172-.07-3.169 2.898-4.034.56-.163 1.103-.381 1.657-.561 8.202-2.66 16.4-5.328 24.606-7.97 3.05-.982 6.126-1.884 9.176-2.86 2.142-.687 2.4-1.338 1.51-3.281-.266-.58-.416-1.218-.586-1.838-1.331-4.837-2.648-9.68-3.987-14.514-.404-1.465-2.765-3.21-3.659-2.534-1.631 1.236-3.473 1.116-5.27 1.346-7.277.931-14.557 1.824-22.393 2.8 1.186-4.551 2.216-8.677 3.348-12.775.713-2.582 1.501-5.152 2.416-7.67.455-1.256.267-2.13-1.043-2.395-2.335-.47-4.67-1.04-7.035-1.248-8.931-.79-17.292 1.241-23.905 7.314C1.518 16.44-2.142 27.659 1.22 40.824c1.796 7.04 5.742 12.725 11.007 17.527 1.595 1.456 3.482 2.212 5.914 1.26 3.989-1.558 8.134-2.717 12.315-4.078 0 3.33-.115 6.524.022 9.709.371 8.499.848 16.992 1.291 25.487.015.282.037.744.192.812 1.516.667 2.648 2.444 4.738 1.516.938-.418 2.037-.473 3.067-.69 13.121-2.77 26.24-5.547 39.366-8.3 3.562-.748 7.143-1.411 10.93-2.156-1.192 11.924-3.577 23.327-7.032 34.492-3.467 11.2-7.737 22.036-13.148 32.509-5.185 10.033-10.622 19.795-17.536 28.353 0 .893-.048 1.595.018 2.288.039.414.143.942.423 1.18.27.235.914.356 1.192.19.57-.343 1.12-.84 1.481-1.401 1.891-2.943 3.661-5.965 5.585-8.886 5.115-7.769 9.543-15.93 13.45-24.352 4.353-9.375 8.349-18.922 10.99-28.944 2.006-7.617 3.809-15.293 5.464-22.994.916-4.264 1.342-8.632 2.002-13.033 6.646-1.325 13.279-2.635 19.906-3.977 3.945-.8 7.88-1.637 11.812-2.497.834-.183 1.714-.627 1.156-1.669z" transform="translate(299 350)"/>
                </g>
            </g>
            <g mask="url(#prefix__b)" opacity=".5">
                <g transform="translate(84 365)">
                    <mask id="prefix__f" fill="#fff">
                        <use xlink:href="#prefix__e"/>
                    </mask>
                    <path fill="#FFF" d="M81.357 103.188c-1.09.138-1.547.215-2.006.25-5.904.44-11.844.609-17.707 1.373-8.174 1.064-16.38 2.183-24.41 3.987-10.206 2.294-20.253 5.3-30.37 7.993-1.248.333-2.667 1.15-3.728.83-2.283-.686-2.76.472-3.136 1.938 1.027 2.12 2.504 2.9 4.671 2.178 3.543-1.182 7.062-2.457 10.658-3.456 6.823-1.9 13.655-3.805 20.559-5.38 5.193-1.184 10.476-2.101 15.769-2.702 10.162-1.155 20.34-2.488 30.545-2.843 10.717-.374 21.481.102 32.203.639 3.818.19 8.71-1.097 10.85 4.165-.46-1.006-.918-2.014-1.377-3.024l.683.12c.35-1.003 1.146-2.124.914-2.97-.185-.678-1.582-1.383-2.494-1.457-7.082-.574-14.173-1.084-21.271-1.43-3.969-.194-7.957-.035-12.451-.035.59-.754.74-.959.905-1.152 4.774-5.584 9.609-11.12 14.313-16.762 5.176-6.21 10.21-12.537 15.36-18.771 1.022-1.235.713-2.25-.144-3.263-1.673-1.978-3.397-3.914-5.108-5.861-3.63-4.135-7.264-8.267-10.706-12.184 2.21-2.624 4.477-4.847 6.183-7.435 3.608-5.475 4.202-11.61 3.244-17.977-.206-1.36-.65-2.504-2.202-2.374-1.662.138-1.29 1.647-1.446 2.725-.036.242.177.51.223.775 1.443 8.07-1.423 14.524-7.51 19.76-.91.781-1.693 1.003-2.677-.145-4.572-5.338-9.259-10.58-13.861-15.89-2.458-2.84-4.812-5.768-7.246-8.628-1.187-1.394-2.796-1.679-3.41-.6-.768 1.348-1.098 2.806.087 4.147C80.871 26.09 86.49 32.44 92.101 38.795c1.458 1.65 2.908 3.306 4.763 5.414-2.604.275-4.634.381-6.624.723-4.13.709-7.904-.328-11.455-2.259-10.533-5.723-13.866-18.745-7.045-28.835 4.912-7.267 12.135-9.402 20.317-8.873 2.667.171 5.212 1.835 7.87 2.628.952.285 2.072.017 3.116 0-.146-.8-.076-1.741-.491-2.365-.583-.874-1.4-1.775-2.333-2.212C95.97 1.022 91.466-.105 86.74.062c-6.31.226-11.593 2.976-16.093 7.179-3.962 3.7-6.475 8.22-7.37 13.68-.846 5.164.57 9.753 2.683 14.32 3.7 7.988 10.112 12.397 18.572 14.141 5.269 1.086 10.339.306 15.092-1.948l16.025 18.421c-1.499 2.032-2.703 3.853-4.096 5.52-7.482 8.955-15.008 17.876-22.53 26.797-2.439 2.892-2.487 2.926-5.6.972-8.16-5.125-16.278-10.317-24.437-15.443-4.225-2.653-8.474-5.27-12.78-7.785-.68-.397-2.087-.549-2.515-.142-.613.583-.958 1.84-.804 2.7.122.686 1.084 1.335 1.809 1.786 6.855 4.252 13.763 8.424 20.608 12.691 5.212 3.248 10.36 6.6 16.054 10.237" mask="url(#prefix__f)"/>
                    <g>
                        <mask id="prefix__h" fill="#fff">
                            <use xlink:href="#prefix__g"/>
                        </mask>
                        <path fill="#FFF" d="M81.357 103.188c-5.695-3.637-10.842-6.99-16.054-10.237-6.845-4.267-13.753-8.439-20.608-12.69-.725-.452-1.687-1.101-1.809-1.788-.154-.86.19-2.116.804-2.699.428-.407 1.836-.255 2.514.142 4.307 2.514 8.556 5.132 12.781 7.785 8.16 5.126 16.277 10.318 24.437 15.443 3.113 1.954 3.161 1.92 5.6-.972 7.522-8.92 15.048-17.842 22.53-26.797 1.393-1.667 2.597-3.488 4.096-5.52l-16.025-18.42c-4.753 2.253-9.823 3.033-15.092 1.947-8.46-1.744-14.872-6.153-18.572-14.142-2.112-4.566-3.529-9.155-2.682-14.319.894-5.46 3.407-9.98 7.369-13.68C75.146 3.038 80.428.288 86.74.062c4.726-.167 9.229.96 13.48 2.954.932.437 1.75 1.338 2.332 2.212.415.624.345 1.565.49 2.365-1.043.017-2.163.285-3.115 0-2.658-.793-5.203-2.457-7.87-2.628-8.182-.53-15.405 1.606-20.317 8.873-6.821 10.09-3.488 23.112 7.045 28.835 3.551 1.93 7.324 2.968 11.455 2.259 1.99-.342 4.02-.448 6.624-.723-1.855-2.108-3.305-3.763-4.763-5.414-5.612-6.355-11.23-12.704-16.837-19.066-1.185-1.341-.855-2.799-.088-4.146.615-1.08 2.224-.795 3.411.6 2.434 2.859 4.788 5.787 7.246 8.626 4.602 5.312 9.29 10.553 13.86 15.891.985 1.148 1.768.926 2.678.145 6.087-5.236 8.953-11.69 7.51-19.76-.046-.265-.259-.533-.223-.775.156-1.078-.216-2.587 1.446-2.725 1.553-.13 1.996 1.015 2.202 2.374.958 6.367.364 12.502-3.244 17.977-1.706 2.588-3.973 4.81-6.183 7.435 3.442 3.917 7.076 8.05 10.706 12.184 1.71 1.947 3.435 3.883 5.108 5.861.857 1.013 1.166 2.028.144 3.263-5.15 6.234-10.184 12.561-15.36 18.771-4.704 5.643-9.539 11.178-14.313 16.762-.165.193-.314.398-.905 1.152 4.494 0 8.482-.16 12.451.035 7.098.346 14.189.856 21.271 1.43.912.074 2.309.78 2.494 1.458.232.845-.563 1.966-.914 2.969l-.683-.12c.459 1.01.917 2.018 1.377 3.024-2.14-5.262-7.032-3.975-10.85-4.165-10.722-.537-21.486-1.013-32.203-.639-10.204.355-20.383 1.688-30.545 2.843-5.293.601-10.576 1.518-15.77 2.702-6.903 1.575-13.735 3.48-20.558 5.38-3.596 1-7.115 2.274-10.658 3.456-2.167.722-3.644-.058-4.671-2.178.376-1.466.853-2.624 3.136-1.938 1.061.32 2.48-.497 3.728-.83 10.117-2.692 20.164-5.699 30.37-7.993 8.03-1.804 16.236-2.923 24.41-3.987 5.863-.764 11.803-.933 17.707-1.374.459-.034.916-.111 2.006-.25" mask="url(#prefix__h)"/>
                    </g>
                </g>
            </g>
        </g>
    </g>
</svg>
