<svg id="american-express-seeklogo.com" xmlns="http://www.w3.org/2000/svg" width="107.979" height="29.209" viewBox="0 0 107.979 29.209">
  <g id="american-express-seeklogo.com-2" data-name="american-express-seeklogo.com" transform="translate(-0.021 -0.194)" opacity="0.4">
    <path id="Fill_4" data-name="Fill 4" d="M3.555,12.825H0L5.46,0H9.6l5.455,12.823H11.422l-1-2.568H4.562L3.555,12.824Zm3.926-9.84L5.69,7.472H9.266Z" transform="translate(0.021 0.196)" fill="#fff"/>
    <path id="Fill_5" data-name="Fill 5" d="M0,12.824V0L5.052.019,7.99,8.287,10.858,0H15.87V12.824H12.7V3.375l-3.365,9.45H6.548L3.174,3.375v9.45H0" transform="translate(15.452 0.194)" fill="#fff"/>
    <path id="Fill_6" data-name="Fill 6" d="M0,12.824V0H10.357V2.868H3.207V5.062H10.19v2.7H3.207V10.04h7.15v2.784H0" transform="translate(33.494 0.194)" fill="#fff"/>
    <path id="Fill_7" data-name="Fill 7" d="M3.174,12.825H0V0H7.063a4.726,4.726,0,0,1,3.1,1.068A3.94,3.94,0,0,1,11.5,4.161a3.905,3.905,0,0,1-1.1,2.78A3.831,3.831,0,0,1,8.019,8.1l4.175,4.723-3.878,0L4.511,8.268H3.174v4.556Zm0-9.957v2.7H6.85A1.434,1.434,0,0,0,8.306,4.219,1.469,1.469,0,0,0,6.8,2.868Z" transform="translate(45.689 0.196)" fill="#fff"/>
    <path id="Fill_8" data-name="Fill 8" d="M0,12.824H3.241V0H0Z" transform="translate(58.485 0.194)" fill="#fff"/>
    <path id="Fill_9" data-name="Fill 9" d="M6.139,12.824h-.7C2.055,12.824,0,10.13,0,6.464,0,2.708,2.032,0,6.307,0H9.815V3.037H6.178C4.443,3.037,3.216,4.4,3.216,6.5c0,2.484,1.4,3.527,3.425,3.527h.835l-1.337,2.8" transform="translate(63.271 0.194)" fill="#fff"/>
    <path id="Fill_10" data-name="Fill 10" d="M3.555,12.825H0L5.46,0H9.6l5.455,12.823H11.423l-1-2.568H4.563L3.555,12.824Zm3.926-9.84L5.691,7.472H9.266Z" transform="translate(70.856 0.196)" fill="#fff"/>
    <path id="Fill_11" data-name="Fill 11" d="M0,12.824V0H4.035L9.188,8.057V0h3.174V12.824h-3.9L3.174,4.556v8.268H0" transform="translate(86.283 0.194)" fill="#fff"/>
    <path id="Fill_12" data-name="Fill 12" d="M0,12.825V0H10.358V2.869H3.208V5.062H10.19v2.7H3.208v2.278h7.15v2.784H0" transform="translate(23.137 16.575)" fill="#fff"/>
    <path id="Fill_13" data-name="Fill 13" d="M0,12.825V0H10.357V2.869H3.208V5.062h6.949v2.7H3.208v2.278h7.15v2.784H0" transform="translate(73.888 16.575)" fill="#fff"/>
    <path id="Fill_14" data-name="Fill 14" d="M.119,12.824,5.162,6.491,0,0H4L7.073,4.013,10.159,0H14l-5.1,6.412,5.052,6.412h-4L6.974,8.875l-2.914,3.95H.119" transform="translate(33.776 16.576)" fill="#fff"/>
    <path id="Fill_15" data-name="Fill 15" d="M3.257,12.825H0V0H7.011a4.2,4.2,0,0,1,4.557,4.314c0,2.751-1.9,4.46-4.97,4.46H3.257v4.05Zm0-9.924V5.854H6.765A1.479,1.479,0,0,0,8.342,4.377,1.442,1.442,0,0,0,6.776,2.9Z" transform="translate(48.112 16.578)" fill="#fff"/>
    <path id="Fill_16" data-name="Fill 16" d="M3.174,12.826H0V0H7.063a4.726,4.726,0,0,1,3.1,1.068A3.938,3.938,0,0,1,11.5,4.161a3.906,3.906,0,0,1-1.1,2.78A3.832,3.832,0,0,1,8.018,8.1l4.175,4.723-3.878,0L4.511,8.268H3.174v4.557Zm0-9.957v2.7H6.849a1.435,1.435,0,0,0,1.457-1.35,1.469,1.469,0,0,0-1.5-1.35Z" transform="translate(61.058 16.575)" fill="#fff"/>
    <path id="Fill_17" data-name="Fill 17" d="M.4,12.824V10.04H6.755c.94,0,1.347-.513,1.347-1.076C8.1,8.425,7.7,7.88,6.755,7.88H3.884A3.567,3.567,0,0,1,0,4.039C0,1.983,1.273,0,4.98,0h6.181L9.824,2.885H4.479c-1.022,0-1.337.542-1.337,1.059A1.112,1.112,0,0,0,4.312,5.062H7.319c2.782,0,3.988,1.594,3.988,3.681a3.826,3.826,0,0,1-4.139,4.081H.4" transform="translate(85.312 16.576)" fill="#fff"/>
    <path id="Fill_18" data-name="Fill 18" d="M.4,12.824V10.04H6.487c.94,0,1.347-.513,1.347-1.076,0-.539-.406-1.084-1.347-1.084h-2.6A3.567,3.567,0,0,1,0,4.039C0,1.983,1.273,0,4.981,0h6.058L9.7,2.885H4.48c-1.022,0-1.337.542-1.337,1.059A1.112,1.112,0,0,0,4.312,5.062H7.05c2.782,0,3.989,1.594,3.989,3.681A3.826,3.826,0,0,1,6.9,12.824H.4" transform="translate(96.961 16.576)" fill="#fff"/>
  </g>
</svg>
