<svg id="cellebrite-logo" xmlns="http://www.w3.org/2000/svg" width="158.779" height="30.632" viewBox="0 0 158.779 30.632">
  <g id="cellebrite-logo-2" data-name="cellebrite-logo" opacity="0.4">
    <path id="Combined_Shape" data-name="Combined Shape" d="M10.442,27.766a2.858,2.858,0,0,1,4.925-2.079,2.836,2.836,0,0,1,.911,2.079,2.918,2.918,0,0,1-5.836,0Zm98.95,1.543v.828h-.365v.043h-3.532V11.318h.272v-.3h3.783v5.519a4.178,4.178,0,0,1,1.1-.654,5,5,0,0,1,2.523-.618,5.1,5.1,0,0,1,3.625,1.365c1.576,1.516,1.576,3.935,1.576,6.068,0,2.242-.187,4.734-1.576,6.219a4.82,4.82,0,0,1-1.714,1.029,5.265,5.265,0,0,1-2.373.53A4.713,4.713,0,0,1,109.391,29.309Zm.158-6.454c0,2.474.165,4.1,2.363,4.1a2.565,2.565,0,0,0,1.23-.267c.634-.7.8-1.95.8-3.6.085-1.324.07-2.785-.68-3.585a2.3,2.3,0,0,0-1.777-.641,2.88,2.88,0,0,0-.788.1C109.771,19.574,109.549,20.952,109.549,22.855ZM47.757,28.37c-2-1.962-2-4.063-2-7.546,0-3.452,0-5.734,2-7.7a7.488,7.488,0,0,1,5.374-2.112q.244,0,.482.012a6.913,6.913,0,0,1,7.325,6.127h-.467q.016.1.031.2H56.509c-.544-1.957-1.616-2.867-3.379-2.867a3.771,3.771,0,0,0-1.092.162,2.681,2.681,0,0,0-.906.713c-.767.9-1.073,1.494-1.073,5.379s.306,4.333,1.073,5.081a3.082,3.082,0,0,0,2.451,1.046,3.594,3.594,0,0,0,1.919-.556A3.62,3.62,0,0,0,56.509,24.3h.408q.025-.131.037-.266h3.983a7.3,7.3,0,0,1-3.722,5.41,7.927,7.927,0,0,1-4.085,1.043A7.491,7.491,0,0,1,47.757,28.37Zm103.33,1.868a6.25,6.25,0,0,1-3.744-1.78c-1.381-1.563-1.651-3.314-1.651-5.809,0-2.518.27-4.251,1.651-5.656A6.942,6.942,0,0,1,152,15.156a6.47,6.47,0,0,1,4.505,1.69,5.957,5.957,0,0,1,.589.508c1.413,1.388,1.689,3.1,1.689,5.584v1.207h-1.842l-1.843-.151h-5.682a3.5,3.5,0,0,0,.922,2.566c.077.038.153.076.227.114a3.466,3.466,0,0,0,1.769.489q.162,0,.31-.006a3.63,3.63,0,0,0,1.307-.686,2.232,2.232,0,0,0,.225-.306,2.062,2.062,0,0,1,.226-.306H158q-.007.049-.015.1h.487a4.267,4.267,0,0,1-1.382,2.565,6.827,6.827,0,0,1-4.76,1.811A8.081,8.081,0,0,1,151.086,30.238Zm3.761-8.966a3.618,3.618,0,0,0-.7-2.22,3.414,3.414,0,0,0-1.815-.491,3.3,3.3,0,0,0-1.842.6,3.286,3.286,0,0,0-.91,2.107Zm-10.5,9.059h-2.149v-.15a4.22,4.22,0,0,1-3.3-1.32,4.4,4.4,0,0,1-1-2.905V18.464h-1.31V18.41h-.226V15.694H137.9V11.167h.2v-.145h3.625V15.73h2.569v2.734h-.1v.1h-2.469v7.346a1.238,1.238,0,0,0,1.209,1.367h1.36v.04h.054V30.33h0ZM91.828,28.52c-1.413-1.388-1.689-3.1-1.689-5.583a8.436,8.436,0,0,1,.952-4.68,5.067,5.067,0,0,1,.916-1.267,6.945,6.945,0,0,1,4.653-1.835,6.426,6.426,0,0,1,4.653,1.835,5.361,5.361,0,0,1,1.463,2.955,13.25,13.25,0,0,1,.261,2.991v1.207H101.2l-1.689-.151H93.961a4.233,4.233,0,0,0,.9,2.477,2.012,2.012,0,0,0,.214.247,3.837,3.837,0,0,0,1.669.445,4.089,4.089,0,0,0,.752-.062,3.89,3.89,0,0,0,1.118-.63,2.161,2.161,0,0,0,.226-.306,2.126,2.126,0,0,1,.225-.306h3.6q-.007.049-.015.1h.081a4.267,4.267,0,0,1-1.382,2.565A6.24,6.24,0,0,1,99.569,29.7a5.783,5.783,0,0,1-2.419.606q-.273.02-.562.02A6.571,6.571,0,0,1,91.828,28.52Zm2.131-7.249H99.5a3.056,3.056,0,0,0-.912-2.107,3.447,3.447,0,0,0-2-.6,4.351,4.351,0,0,0-1.965.588A3.684,3.684,0,0,0,93.959,21.271Zm-5.971,9.059H84.3V11.318h.45v-.3h3.5V30.311h-.267v.019h0Zm-6.91,0H77.393V11.318h.356v-.3h3.5V30.311h-.173v.019h0ZM63.88,28.52c-1.413-1.388-1.689-3.1-1.689-5.583A9.871,9.871,0,0,1,62.8,18.89a5.058,5.058,0,0,1,1.186-1.9,6.942,6.942,0,0,1,4.653-1.835A6.429,6.429,0,0,1,73.3,16.991a5.066,5.066,0,0,1,1.21,1.965,10.045,10.045,0,0,1,.584,3.982v1.207H73.247L71.4,23.993h-5.46a4.233,4.233,0,0,0,.9,2.477,1.883,1.883,0,0,0,.332.353,3.15,3.15,0,0,0,1.466.339,5.343,5.343,0,0,0,.809-.053,3.859,3.859,0,0,0,1.145-.639,2.232,2.232,0,0,0,.225-.306,2.062,2.062,0,0,1,.226-.306h3.6q-.007.049-.015.1h.15A4.267,4.267,0,0,1,73.4,28.52a6.309,6.309,0,0,1-1.967,1.266,5.538,5.538,0,0,1-2.221.523q-.277.021-.572.021A6.571,6.571,0,0,1,63.88,28.52Zm7.465-7.249a3.822,3.822,0,0,0-.419-1.781,3.152,3.152,0,0,0-.289-.326,3.447,3.447,0,0,0-2-.6,2.96,2.96,0,0,0-1.842.6,3.286,3.286,0,0,0-.91,2.107Zm62.438,9.04h-3.5v-14.7h3.5v.079h.272V30.18h-.272v.13h0Zm-13.307,0v-.13h-.393V15.845h3.839v.3h.446v1.54a7.872,7.872,0,0,1,1.09-1.382,4.479,4.479,0,0,1,2.917-.905v.475q.248-.022.507-.022v3.69h-.623a3.468,3.468,0,0,0-3.269,1.477,6.4,6.4,0,0,0-.466,2.362v6.938ZM3.9,26.805a3.071,3.071,0,0,1-1.1-2.35,3.152,3.152,0,0,1,6.3,0,3.181,3.181,0,0,1-3.117,3.159A3.089,3.089,0,0,1,3.9,26.805Zm16.069.321a2.257,2.257,0,0,1,.882-4.34,2.5,2.5,0,0,1,.515-.053,2.411,2.411,0,1,1,0,4.822A2.469,2.469,0,0,1,19.967,27.126ZM0,17.222q0-.042,0-.085t0-.086a2.9,2.9,0,0,1,2.918-2.867,2.86,2.86,0,0,1,1.077,5.531,2.829,2.829,0,0,1-1.193.262A2.779,2.779,0,0,1,0,17.222Zm24.168,1.924a1.658,1.658,0,0,1,.248-3.3,1.725,1.725,0,0,1,.222.014,1.8,1.8,0,0,1,.227-.014,1.722,1.722,0,1,1,0,3.444A1.769,1.769,0,0,1,24.168,19.147Zm110.041-4.659H130.37v-.1h-.088V11.022h3.5v.145h.426v3.319h0ZM4.751,12.09a2.254,2.254,0,0,1,.311-4.348,2.481,2.481,0,0,1,.892-.164,2.411,2.411,0,1,1,0,4.822A2.471,2.471,0,0,1,4.751,12.09ZM19.5,9.658A1.677,1.677,0,0,1,21.191,8a1.7,1.7,0,0,1,1.074.38,1.369,1.369,0,0,1,.065,2.5,1.7,1.7,0,0,1-1.139.435A1.676,1.676,0,0,1,19.5,9.658ZM30.1,9.2,28.869,6.036,25.491,4.829l.466-.187-.04-.014,2.958-1.17L30.1.151l.19.536L30.546,0l1.235,3.433,3.241,1.194-.542.175.072.027-2.8.917L30.546,8.956l-.184-.466L30.1,9.2ZM11.517,6.489A1.829,1.829,0,0,1,13.36,4.678a1.854,1.854,0,0,1,.985.281,1.717,1.717,0,0,1-.628,3.306,1.875,1.875,0,0,1-.358.034A1.829,1.829,0,0,1,11.517,6.489Z" fill="#fff"/>
  </g>
</svg>
