<svg id="logo" xmlns="http://www.w3.org/2000/svg" width="114.428" height="25.774" viewBox="0 0 114.428 25.774">
  <g id="logo-2" data-name="logo" opacity="0.4">
    <ellipse id="Oval" cx="2.754" cy="2.811" rx="2.754" ry="2.811" transform="translate(68.862 0)" fill="#fff"/>
    <ellipse id="Oval-2" data-name="Oval" cx="2.754" cy="2.811" rx="2.754" ry="2.811" transform="translate(0 17.568)" fill="#fff"/>
    <path id="Shape" d="M72.369,18.5H69.082V1.69a1.73,1.73,0,0,1,.474-1.2A1.546,1.546,0,0,1,70.081.13,1.664,1.664,0,0,1,70.738,0H83.215a3.927,3.927,0,0,1,1.859.406,3.853,3.853,0,0,1,1.232,1.02,4.014,4.014,0,0,1,.683,1.322A4.755,4.755,0,0,1,87.2,4.076V6.217a7,7,0,0,1-.278,2.051,5.842,5.842,0,0,1-.752,1.593,5.359,5.359,0,0,1-1.093,1.18,6.566,6.566,0,0,1-1.3.807,6.181,6.181,0,0,1-1.365.457,6.487,6.487,0,0,1-1.3.142L87.978,18.5l-5.08,0-6.851-6.049H73.683V9.094h7.433a3.764,3.764,0,0,0,1.131-.265,2.836,2.836,0,0,0,.886-.574,2.464,2.464,0,0,0,.574-.871,3.154,3.154,0,0,0,.2-1.167V4.1a1.06,1.06,0,0,0-.069-.432.517.517,0,0,0-.177-.22.5.5,0,0,0-.228-.084,1.955,1.955,0,0,0-.221-.013H72.369V18.5Zm-69.082,0H0V9.249A9.984,9.984,0,0,1,.682,5.521a8.76,8.76,0,0,1,1.9-2.929A8.641,8.641,0,0,1,5.449.684,9.428,9.428,0,0,1,9.064,0h7.407a1.626,1.626,0,0,1,.644.13,1.605,1.605,0,0,1,.531.361A1.669,1.669,0,0,1,18,1.032a1.74,1.74,0,0,1,.126.658V18.5H14.84v-4.54H3.287V18.5ZM9.064,3.354c-.105,0-.326.016-.639.045A6.431,6.431,0,0,0,7.3,3.624a7.06,7.06,0,0,0-1.346.555,4.768,4.768,0,0,0-1.3,1.031,5.344,5.344,0,0,0-.979,1.645,6.613,6.613,0,0,0-.385,2.393V10.6H14.84V3.354ZM106.619,18.5H94.762a5.207,5.207,0,0,1-1.491-.244,4.366,4.366,0,0,1-1.5-.807,4.507,4.507,0,0,1-1.151-1.457,4.8,4.8,0,0,1-.461-2.2V1.69a1.73,1.73,0,0,1,.474-1.2A1.535,1.535,0,0,1,91.16.13,1.658,1.658,0,0,1,91.817,0h14.8V3.354H93.448V13.789a1.382,1.382,0,0,0,.341,1.006,1.342,1.342,0,0,0,1,.349h11.832V18.5ZM65.5,18.5H62.213V0H65.5V18.5Zm-20.686,0H41.525V4.708a4.794,4.794,0,0,1,.462-2.192,4.431,4.431,0,0,1,1.15-1.458,4.513,4.513,0,0,1,1.5-.805A5.085,5.085,0,0,1,46.127,0h7.432a6.455,6.455,0,0,1,2,.29,5.8,5.8,0,0,1,1.561.775,5.237,5.237,0,0,1,1.15,1.115A7,7,0,0,1,59.052,3.5,6.585,6.585,0,0,1,59.5,4.9a6.936,6.936,0,0,1,.139,1.322V7.74a7.008,7.008,0,0,1-.278,2.051,5.9,5.9,0,0,1-.751,1.593,5.411,5.411,0,0,1-1.094,1.18,6.467,6.467,0,0,1-3.956,1.393H46.127V10.6h7.432a3.788,3.788,0,0,0,1.144-.264,2.735,2.735,0,0,0,.878-.574,2.5,2.5,0,0,0,.569-.871,3.115,3.115,0,0,0,.2-1.154V6.217a4.555,4.555,0,0,0-.265-1.161,2.781,2.781,0,0,0-.551-.9,2.484,2.484,0,0,0-.841-.587,2.87,2.87,0,0,0-1.138-.212H46.151a1.34,1.34,0,0,0-1,.348,1.383,1.383,0,0,0-.341,1.005V18.5Zm-10.992,0H21.142V15.144H33.82a1.914,1.914,0,0,0,1.473-.568,2.164,2.164,0,0,0,.525-1.522,2.525,2.525,0,0,0-.14-.852,1.979,1.979,0,0,0-.4-.671,1.772,1.772,0,0,0-.631-.438,2.152,2.152,0,0,0-.829-.155H26.261a5.754,5.754,0,0,1-1.719-.291,5.023,5.023,0,0,1-3.028-2.624,5.671,5.671,0,0,1-.525-2.554,5.634,5.634,0,0,1,.525-2.548,5.192,5.192,0,0,1,1.315-1.689A5.1,5.1,0,0,1,24.542.29,5.81,5.81,0,0,1,26.261,0H37.449V3.354H26.261a1.874,1.874,0,0,0-1.46.581,2.21,2.21,0,0,0-.525,1.534A2.159,2.159,0,0,0,24.8,7a1.911,1.911,0,0,0,1.46.561h7.584a5.725,5.725,0,0,1,1.126.149,5.591,5.591,0,0,1,1.182.419,5.706,5.706,0,0,1,1.119.716,4.84,4.84,0,0,1,.941,1.039,5.173,5.173,0,0,1,.651,1.393,6.111,6.111,0,0,1,.24,1.78,6.019,6.019,0,0,1-.247,1.786,5.406,5.406,0,0,1-.651,1.4,4.44,4.44,0,0,1-.949,1.032,5.815,5.815,0,0,1-1.125.7,5.594,5.594,0,0,1-1.182.4A5.44,5.44,0,0,1,33.82,18.5Zm71.321-7.558H94.762V7.559h10.379v3.379Z" transform="translate(7.809 7.276)" fill="#fff"/>
  </g>
</svg>
